<svg width="24" height="24" viewBox="0 0 24 24" fill="none" xmlns="http://www.w3.org/2000/svg">
<path opacity="0.4" d="M18.8088 9.021C18.3573 9.021 17.7592 9.011 17.0146 9.011C15.1987 9.011 13.7055 7.508 13.7055 5.675V2.459C13.7055 2.206 13.5036 2 13.253 2H7.96363C5.49517 2 3.5 4.026 3.5 6.509V17.284C3.5 19.889 5.59022 22 8.16958 22H16.0463C18.5058 22 20.5 19.987 20.5 17.502V9.471C20.5 9.217 20.299 9.012 20.0475 9.013C19.6247 9.016 19.1177 9.021 18.8088 9.021Z" fill="white" fill-opacity="0.5"/>
<path opacity="0.4" d="M16.084 2.56737C15.785 2.25637 15.263 2.47037 15.263 2.90137V5.53837C15.263 6.64437 16.174 7.55437 17.28 7.55437C17.977 7.56237 18.945 7.56437 19.767 7.56237C20.188 7.56137 20.402 7.05837 20.11 6.75437C19.055 5.65737 17.166 3.69137 16.084 2.56737Z" fill="white" fill-opacity="0.5"/>
<path fill-rule="evenodd" clip-rule="evenodd" d="M8.97392 11.3874H12.3589C12.7699 11.3874 13.1039 11.0544 13.1039 10.6434C13.1039 10.2324 12.7699 9.89844 12.3589 9.89844H8.97392C8.56292 9.89844 8.22992 10.2324 8.22992 10.6434C8.22992 11.0544 8.56292 11.3874 8.97392 11.3874ZM8.97402 16.3816H14.418C14.829 16.3816 15.163 16.0486 15.163 15.6376C15.163 15.2266 14.829 14.8926 14.418 14.8926H8.97402C8.56302 14.8926 8.23002 15.2266 8.23002 15.6376C8.23002 16.0486 8.56302 16.3816 8.97402 16.3816Z" fill="white" fill-opacity="0.5"/>
</svg>
