<svg width="40" height="40" viewBox="0 0 40 40" fill="none" xmlns="http://www.w3.org/2000/svg">
<mask id="mask0_408_6225" style="mask-type:alpha" maskUnits="userSpaceOnUse" x="0" y="0" width="40" height="40">
<circle cx="20" cy="20" r="20" fill="#EFF0F6"/>
</mask>
<g mask="url(#mask0_408_6225)">
<mask id="mask1_408_6225" style="mask-type:alpha" maskUnits="userSpaceOnUse" x="0" y="0" width="40" height="40">
<rect width="40" height="40" rx="20" fill="#C4C4C4"/>
</mask>
<g mask="url(#mask1_408_6225)">
<mask id="mask2_408_6225" style="mask-type:alpha" maskUnits="userSpaceOnUse" x="0" y="0" width="40" height="40">
<rect width="40" height="40" fill="#C4C4C4"/>
</mask>
<g mask="url(#mask2_408_6225)">
<rect width="40" height="40" fill="#F5EFFF"/>
<path d="M36.4442 40.0007H3.33325C3.33325 40.0007 3.77763 37.8943 4.41087 35.7791C5.04412 33.6638 6.35283 32.7773 8.04815 32.344C8.52586 32.2218 9.40129 31.9663 10.4123 31.6663C10.8011 31.5485 11.2121 31.4263 11.6276 31.2997C11.8209 31.2419 12.0165 31.1819 12.212 31.1219C14.345 30.4731 16.427 29.8266 16.427 29.8266L19.8709 29.5511L19.8909 29.5488L19.9109 29.5511L23.0172 29.7999C23.0172 29.7999 24.8858 30.3598 26.9255 30.9642C27.3166 31.0797 27.7165 31.1975 28.1076 31.313C29.634 31.7596 31.076 32.1773 31.7293 32.344C33.4246 32.7795 34.7333 33.6638 35.3665 35.7791C35.9998 37.8943 36.4442 40.0007 36.4442 40.0007Z" fill="#19274B"/>
<path d="M28.1076 31.3103C27.9077 32.1702 27.5633 33.3034 26.9811 34.4232C25.8435 36.6185 23.8016 38.7759 20.1665 38.7759C16.3159 38.7759 14.114 36.5407 12.8853 34.3965C12.2032 33.2034 11.821 32.0391 11.6255 31.2992C11.8188 31.2414 12.0143 31.1814 12.2099 31.1214C14.3429 30.4727 16.4248 29.8261 16.4248 29.8261L19.8688 29.5506L19.8888 29.5483L19.9088 29.5506L23.015 29.7994C23.015 29.7994 24.8836 30.3593 26.9233 30.9637C27.3166 31.077 27.7143 31.1948 28.1076 31.3103Z" fill="#FF8881"/>
<path d="M15.5494 30.4395C15.4583 30.4395 15.3717 30.4039 15.3073 30.3395C15.2917 30.3239 15.2762 30.3061 15.265 30.2884C15.2517 30.2706 15.2428 30.2506 15.2339 30.2284C15.225 30.2084 15.2184 30.1862 15.2139 30.1639C15.2095 30.1417 15.2073 30.1195 15.2073 30.0973C15.2073 30.0751 15.2095 30.0528 15.2139 30.0306C15.2184 30.0084 15.225 29.9862 15.2339 29.9662C15.2428 29.9462 15.2517 29.9262 15.265 29.9084C15.2784 29.8906 15.2917 29.8729 15.3073 29.8573C15.3717 29.7929 15.4583 29.7573 15.5494 29.7573C15.6405 29.7573 15.7272 29.7929 15.7916 29.8573C15.8072 29.8729 15.8227 29.8906 15.8339 29.9084C15.845 29.9262 15.8561 29.9462 15.865 29.9662C15.8738 29.9862 15.8805 30.0084 15.885 30.0306C15.8894 30.0528 15.8916 30.0751 15.8916 30.0973C15.8916 30.1195 15.8894 30.1417 15.885 30.1639C15.8805 30.1862 15.8738 30.2062 15.865 30.2284C15.8561 30.2484 15.845 30.2684 15.8339 30.2884C15.8205 30.3061 15.8072 30.3239 15.7916 30.3395C15.7761 30.355 15.7583 30.3706 15.7405 30.3817C15.7228 30.3928 15.7028 30.4039 15.6805 30.4128C15.6605 30.4217 15.6383 30.4283 15.6161 30.4328C15.5939 30.4372 15.5717 30.4395 15.5494 30.4395Z" fill="#F5EFFF"/>
<path d="M19.9111 33.9234C19.7222 33.9234 19.5689 33.7679 19.5711 33.5813C19.5711 33.3924 19.7244 33.2391 19.9133 33.2413C20.1022 33.2413 20.2555 33.3946 20.2555 33.5835C20.2532 33.7701 20.0999 33.9234 19.9111 33.9234ZM20.4465 33.5724C20.4199 33.3857 20.551 33.2124 20.7376 33.1858C20.9243 33.1591 21.0976 33.2902 21.122 33.4768C21.1487 33.6635 21.0176 33.8368 20.8309 33.8634C20.8154 33.8657 20.7998 33.8657 20.7843 33.8657C20.6154 33.8657 20.471 33.7435 20.4465 33.5724ZM18.989 33.8568C18.8023 33.8301 18.6735 33.6546 18.7001 33.4679C18.7268 33.2813 18.9023 33.1524 19.089 33.1791C19.2756 33.2058 19.4045 33.3791 19.3778 33.5657C19.3534 33.7368 19.2067 33.859 19.0401 33.859C19.0223 33.859 19.0045 33.859 18.989 33.8568ZM21.3131 33.4368C21.2531 33.2569 21.3509 33.0636 21.5308 33.0058C21.7108 32.9458 21.9041 33.0436 21.9619 33.2235C22.0219 33.4035 21.9241 33.5968 21.7441 33.6546C21.7086 33.6657 21.673 33.6724 21.6375 33.6724C21.4953 33.6724 21.3598 33.5813 21.3131 33.4368ZM18.0758 33.6413C17.8958 33.5813 17.8003 33.3857 17.8625 33.208C17.9225 33.028 18.1158 32.9325 18.2957 32.9947C18.4757 33.0547 18.5713 33.2502 18.509 33.4279C18.4602 33.5701 18.3268 33.6612 18.1846 33.6612C18.1491 33.659 18.1135 33.6524 18.0758 33.6413ZM22.1396 33.1435C22.0419 32.9813 22.0952 32.7725 22.2574 32.6747C22.4196 32.577 22.6285 32.6303 22.7262 32.7925C22.824 32.9547 22.7707 33.1635 22.6085 33.2613C22.5529 33.2946 22.4929 33.3102 22.4329 33.3102C22.3196 33.3102 22.2041 33.2502 22.1396 33.1435ZM17.2159 33.2435C17.0537 33.1458 17.0026 32.9369 17.1004 32.7747C17.1981 32.6125 17.407 32.5614 17.5692 32.6592C17.7314 32.7569 17.7825 32.968 17.6847 33.128C17.6203 33.2346 17.507 33.2924 17.3914 33.2924C17.3314 33.2924 17.2692 33.2769 17.2159 33.2435ZM22.8818 32.6725C22.7484 32.5392 22.7507 32.3214 22.884 32.1881C23.0173 32.0548 23.235 32.0548 23.3684 32.1903C23.5017 32.3237 23.5017 32.5414 23.3661 32.6747C23.2995 32.7414 23.2128 32.7747 23.1262 32.7747C23.0373 32.7747 22.9484 32.7414 22.8818 32.6725ZM16.4604 32.6569C16.3249 32.5236 16.3249 32.3081 16.456 32.1726C16.5893 32.037 16.8048 32.037 16.9404 32.1703C17.0759 32.3037 17.0759 32.5192 16.9426 32.6525C16.8759 32.7214 16.7871 32.7547 16.6982 32.7547C16.6138 32.7547 16.5271 32.7214 16.4604 32.6569ZM23.4883 32.037C23.3261 31.937 23.2773 31.726 23.3772 31.566C23.4772 31.406 23.6883 31.3549 23.8483 31.4549C24.0083 31.5549 24.0594 31.7637 23.9594 31.9259C23.895 32.0304 23.7816 32.0881 23.6683 32.0881C23.6061 32.0881 23.5439 32.0726 23.4883 32.037ZM15.865 31.9126C15.765 31.7526 15.8116 31.5415 15.9716 31.4416C16.1316 31.3416 16.3427 31.3882 16.4427 31.5482C16.5427 31.7082 16.496 31.9193 16.336 32.0193C16.2782 32.0548 16.216 32.0726 16.1538 32.0726C16.0405 32.0726 15.9294 32.017 15.865 31.9126ZM23.9305 31.2771C23.7527 31.2149 23.6594 31.0194 23.7216 30.8416C23.7839 30.6639 23.9794 30.5706 24.1571 30.6328C24.3349 30.695 24.4282 30.8905 24.366 31.0683C24.3171 31.2083 24.1838 31.2971 24.0438 31.2971C24.0061 31.2971 23.9683 31.2905 23.9305 31.2771ZM15.445 31.0638C15.3806 30.8861 15.4695 30.6906 15.6472 30.6239C15.825 30.5572 16.0205 30.6483 16.0872 30.8261C16.1516 31.0016 16.0627 31.1994 15.885 31.266C15.845 31.2816 15.805 31.2882 15.765 31.2882C15.6272 31.286 15.4961 31.2016 15.445 31.0638Z" fill="#F5EFFF"/>
<path d="M24.246 30.4395C24.2238 30.4395 24.2015 30.4372 24.1793 30.4328C24.1571 30.4283 24.1371 30.4217 24.1149 30.4128C24.0949 30.4039 24.0749 30.3928 24.0549 30.3817C24.0371 30.3684 24.0194 30.355 24.0038 30.3395C23.9882 30.3239 23.9727 30.3061 23.9616 30.2884C23.9482 30.2706 23.9371 30.2506 23.9305 30.2284C23.9216 30.2084 23.9149 30.1862 23.9105 30.1639C23.906 30.1417 23.9038 30.1195 23.9038 30.0973C23.9038 30.0751 23.906 30.0528 23.9105 30.0306C23.9149 30.0084 23.9216 29.9884 23.9305 29.9662C23.9394 29.9462 23.9505 29.9262 23.9616 29.9084C23.9727 29.8906 23.9882 29.8729 24.0038 29.8573C24.0194 29.8418 24.0371 29.8262 24.0549 29.8151C24.0727 29.8018 24.0927 29.7929 24.1149 29.784C24.1349 29.7751 24.1571 29.7684 24.1793 29.764C24.2238 29.7551 24.2682 29.7551 24.3126 29.764C24.3349 29.7684 24.3549 29.7751 24.3771 29.784C24.3971 29.7929 24.4171 29.8018 24.4348 29.8151C24.4526 29.8284 24.4704 29.8418 24.4882 29.8573C24.5037 29.8729 24.5171 29.8906 24.5304 29.9084C24.5437 29.9262 24.5526 29.9462 24.5615 29.9662C24.5704 29.9862 24.577 30.0084 24.5815 30.0306C24.5859 30.0528 24.5882 30.0751 24.5882 30.0973C24.5882 30.1195 24.5859 30.1417 24.5815 30.1639C24.577 30.1862 24.5704 30.2062 24.5615 30.2284C24.5526 30.2484 24.5437 30.2684 24.5304 30.2884C24.5171 30.3061 24.5037 30.3239 24.4882 30.3395C24.4726 30.355 24.4548 30.3706 24.4348 30.3817C24.4171 30.3928 24.3971 30.4039 24.3771 30.4128C24.3571 30.4217 24.3349 30.4283 24.3126 30.4328C24.2904 30.4372 24.2682 30.4395 24.246 30.4395Z" fill="#F5EFFF"/>
<path d="M26.9811 34.4231C25.8434 36.6184 23.8015 38.7759 20.1665 38.7759C16.3159 38.7759 14.114 36.5406 12.8853 34.3965C16.0359 35.1653 21.393 35.9518 26.9811 34.4231Z" fill="#F5EFFF"/>
<path d="M19.9093 29.5459V29.5505L19.8887 29.5482L19.9093 29.5459Z" fill="#5D46C2"/>
<path d="M19.8893 29.5482L19.8687 29.5505V29.5459L19.8893 29.5482Z" fill="#5D46C2"/>
<path d="M24.1236 9.19749C24.0769 9.37969 24.0147 9.56633 23.937 9.75297C23.9036 9.83296 23.8681 9.91517 23.8303 9.99738C23.8125 10.0352 23.7948 10.0729 23.7748 10.1129C23.0815 11.4838 21.6573 12.3282 20.122 12.3282H18.7999C17.7312 12.3282 16.698 11.9171 15.9337 11.1683C15.5937 10.835 15.2582 10.4418 14.996 9.99072C14.9516 9.91517 14.9093 9.83519 14.8694 9.7552C14.8449 9.70409 14.8205 9.65299 14.7983 9.59966C14.3028 8.41983 14.5583 6.62008 15.8759 5.42914C19.151 2.47177 25.1835 5.1114 24.1236 9.19749Z" fill="#E9356E"/>
<path d="M24.1237 9.19733C24.077 9.37952 24.0148 9.56616 23.9371 9.7528C23.9037 9.83279 23.8682 9.91501 23.8304 9.99722C23.8126 10.035 23.7949 10.0728 23.7749 10.1128C23.0816 11.4837 21.6574 12.328 20.122 12.328H18.8C17.7313 12.328 16.6981 11.9169 15.9337 11.1682C15.5938 10.8349 15.2583 10.4416 14.9961 9.99055C14.9517 9.91501 14.9094 9.83502 14.8694 9.75503C14.845 9.70393 14.8206 9.65282 14.7983 9.59949C15.7538 8.96625 17.4291 8.13525 19.6465 8.13525C21.413 8.13525 22.9839 8.66407 24.1237 9.19733Z" fill="#FFAC32"/>
<path d="M19.5931 25.5641C24.2279 25.5641 27.9852 21.8068 27.9852 17.1719C27.9852 12.5371 24.2279 8.77979 19.5931 8.77979C14.9582 8.77979 11.2009 12.5371 11.2009 17.1719C11.2009 21.8068 14.9582 25.5641 19.5931 25.5641Z" fill="#E9356E"/>
<path d="M22.9593 30.6439C22.9593 30.6439 22.1016 32.2481 19.7064 32.2481C17.3912 32.2481 16.418 30.5639 16.418 30.5639L16.5602 29.4107L16.5846 29.2174L16.8068 27.3999L22.5349 27.5599L22.6304 28.2509L22.6615 28.4775L22.9593 30.6439Z" fill="#FF8881"/>
<path d="M22.6281 28.248C21.3305 29.3478 19.2308 29.7655 16.5601 29.4078L16.5845 29.2145L16.8067 27.397L22.5348 27.557L22.6281 28.248Z" fill="#19274B"/>
<path d="M14.6538 22.6712C13.3718 24.4598 10.6144 23.2511 10.801 20.8781C10.9721 18.7251 13.3762 19.0673 13.3762 19.0673L14.6538 22.6712Z" fill="#F55B5D"/>
<path d="M12.963 22.6491C12.963 22.8891 12.7697 23.0824 12.5297 23.0824C12.2897 23.0824 12.0964 22.8891 12.0964 22.6491C12.0964 22.4091 12.2897 22.2158 12.5297 22.2158C12.7697 22.2158 12.963 22.4114 12.963 22.6491Z" fill="#F5EFFF"/>
<path d="M13.4761 22.7155C13.3983 22.7155 13.3294 22.6621 13.3094 22.5844C13.0584 21.5645 12.0007 20.6135 11.9919 20.6046C11.9208 20.5424 11.9141 20.4336 11.9785 20.3625C12.0407 20.2914 12.1496 20.2847 12.2207 20.3491C12.2674 20.3913 13.3694 21.3801 13.6449 22.5022C13.6672 22.5933 13.6116 22.6866 13.5205 22.7088C13.5027 22.7132 13.4894 22.7155 13.4761 22.7155Z" fill="#D1373F"/>
<path d="M13.0341 21.749C13.0163 21.749 12.9986 21.7468 12.9808 21.7401C12.512 21.5824 12.0654 21.6779 12.0609 21.6801C11.9698 21.7001 11.8765 21.6423 11.8565 21.5512C11.8365 21.4601 11.8943 21.369 11.9854 21.3468C12.0076 21.3424 12.5275 21.2291 13.0897 21.4179C13.1785 21.4468 13.2274 21.5446 13.1985 21.6335C13.1719 21.7023 13.1052 21.749 13.0341 21.749Z" fill="#D1373F"/>
<path d="M24.1414 22.6712C25.4234 24.4598 28.1808 23.2511 27.9941 20.8781C27.8231 18.7251 25.419 19.0673 25.419 19.0673L24.1414 22.6712Z" fill="#F55B5D"/>
<path d="M26.701 22.6491C26.701 22.8891 26.5077 23.0824 26.2677 23.0824C26.0278 23.0824 25.8345 22.8891 25.8345 22.6491C25.8345 22.4091 26.0278 22.2158 26.2677 22.2158C26.5055 22.2158 26.701 22.4114 26.701 22.6491Z" fill="#F5EFFF"/>
<path d="M25.319 22.7155C25.3056 22.7155 25.2923 22.7133 25.279 22.711C25.1879 22.6888 25.1301 22.5955 25.1545 22.5044C25.4301 21.3823 26.5321 20.3914 26.5788 20.3514C26.6499 20.2892 26.7565 20.2958 26.821 20.3647C26.8832 20.4358 26.8765 20.5425 26.8077 20.6069C26.7965 20.6158 25.7389 21.5668 25.4901 22.5866C25.4656 22.6644 25.3967 22.7155 25.319 22.7155Z" fill="#D1373F"/>
<path d="M25.7612 21.7493C25.6901 21.7493 25.6234 21.7048 25.599 21.6315C25.5679 21.5426 25.6167 21.4449 25.7078 21.416C26.27 21.2271 26.7899 21.3404 26.8121 21.3449C26.9032 21.3649 26.9632 21.456 26.941 21.5493C26.921 21.6404 26.8299 21.6982 26.7366 21.6782C26.7321 21.6759 26.2833 21.5826 25.8167 21.7382C25.7967 21.7448 25.7789 21.7493 25.7612 21.7493Z" fill="#D1373F"/>
<path d="M12.8673 16.4496C12.8673 16.4496 12.2407 20.3291 13.8627 24.1241C15.3314 27.5636 17.2867 28.6346 19.3686 28.6679C21.735 28.7057 26.6898 27.337 25.9055 16.1097C25.3767 8.52409 13.4939 8.79294 12.8673 16.4496Z" fill="#FF8881"/>
<path d="M24.1414 13.9392C24.1414 13.9392 25.2479 16.9343 25.8367 17.7031L26.4833 15.7167C26.4833 15.7167 26.0145 9.98193 19.371 9.98193C12.5008 9.98193 12.7363 15.7167 12.7363 15.7167L13.3251 18.4163C13.3251 18.4163 15.0538 15.8389 15.1849 14.1302C15.1849 14.1302 17.4823 16.6766 19.6087 16.3722C19.6087 16.3722 18.8288 15.5367 18.6199 14.8901C18.6199 14.8901 22.335 16.8499 24.8213 16.1433C24.8213 16.1433 24.1903 15.2323 24.1414 13.9392Z" fill="#E9356E"/>
<path d="M12.7363 15.7144C12.7363 15.7144 11.932 17.5541 12.3875 19.205C12.843 20.8559 14.7471 22.78 13.3984 24.7175C12.052 26.655 13.5184 29.448 15.5493 28.9347C15.5493 28.9347 13.4251 28.7192 13.534 26.5106C13.6406 24.302 15.8981 23.8643 14.1894 20.7581C12.4808 17.6519 14.0184 15.23 14.0184 15.23L12.7363 15.7144Z" fill="#E9356E"/>
<path d="M26.4833 15.7144C26.4833 15.7144 27.2877 17.5541 26.8322 19.205C26.3767 20.8559 24.4725 22.78 25.8212 24.7175C27.1677 26.655 25.7012 29.448 23.6704 28.9347C23.6704 28.9347 25.7946 28.7192 25.6857 26.5106C25.579 24.302 23.3216 23.8643 25.0302 20.7581C26.7389 17.6519 25.2013 15.23 25.2013 15.23L26.4833 15.7144Z" fill="#E9356E"/>
<path d="M15.0781 18.4164C15.0781 18.4164 15.9847 17.1544 17.5467 16.9922C17.8 16.9655 18.0244 17.1611 18.0399 17.4144V17.4188C18.0555 17.6765 17.8511 17.8943 17.5933 17.8987C17.0067 17.9054 15.9758 17.9898 15.0781 18.4164Z" fill="#E9356E"/>
<path d="M23.8413 18.4164C23.8413 18.4164 22.9348 17.1544 21.3728 16.9922C21.1195 16.9655 20.895 17.1611 20.8795 17.4144V17.4188C20.8639 17.6765 21.0684 17.8943 21.3261 17.8987C21.9127 17.9054 22.9414 17.9898 23.8413 18.4164Z" fill="#E9356E"/>
<path d="M19.6641 26.6551C19.1775 26.6551 18.7909 26.484 18.7665 26.4729C18.6954 26.4396 18.662 26.3551 18.6954 26.284C18.7287 26.2129 18.8131 26.1796 18.8842 26.2129C18.8931 26.2174 19.773 26.6018 20.4773 26.1396C20.544 26.0952 20.6306 26.1152 20.6751 26.1796C20.7173 26.2463 20.6995 26.3329 20.6351 26.3773C20.3107 26.5884 19.9663 26.6551 19.6641 26.6551Z" fill="#F55B5D"/>
<path d="M20.1687 23.0246C20.1642 23.0246 20.162 23.0246 20.1576 23.0246L19.1155 22.9401C19.0377 22.9335 18.9777 22.8646 18.9844 22.7868C18.9911 22.7091 19.0599 22.6513 19.1377 22.6557L20.0087 22.7268L19.7376 20.0783C19.7287 20.0005 19.7865 19.9294 19.8643 19.9228C19.942 19.9139 20.0131 19.9717 20.0198 20.0494L20.3087 22.869C20.3131 22.9113 20.2975 22.9535 20.2687 22.9824C20.242 23.009 20.2064 23.0246 20.1687 23.0246Z" fill="#F55B5D"/>
<path d="M17.429 24.1596C18.711 24.3596 20.0153 24.4462 21.7617 24.0996C21.7617 24.0996 21.6106 25.966 19.5375 25.9727C17.7733 25.9793 17.429 24.1596 17.429 24.1596Z" fill="#F5EFFF"/>
<path d="M17.3246 20.0624C17.3246 20.5557 17.1002 20.9579 16.8225 20.9579C16.5447 20.9579 16.3203 20.5579 16.3203 20.0624C16.3203 19.5692 16.5447 19.167 16.8225 19.167C17.1002 19.1692 17.3246 19.5692 17.3246 20.0624Z" fill="#19274B"/>
<path d="M22.6593 20.0624C22.6593 20.5557 22.4349 20.9579 22.1572 20.9579C21.8794 20.9579 21.655 20.5579 21.655 20.0624C21.655 19.5692 21.8794 19.167 22.1572 19.167C22.4349 19.1692 22.6593 19.5692 22.6593 20.0624Z" fill="#19274B"/>
<path d="M15.4914 21.8979C15.4914 21.9824 15.4226 22.0513 15.3381 22.0513C15.2537 22.0513 15.1848 21.9824 15.1848 21.8979C15.1848 21.8135 15.2537 21.7446 15.3381 21.7446C15.4226 21.7446 15.4914 21.8135 15.4914 21.8979Z" fill="#F55B5D"/>
<path d="M16.2424 22.269C16.2424 22.3535 16.1735 22.4223 16.0891 22.4223C16.0047 22.4223 15.9358 22.3535 15.9358 22.269C15.9358 22.1846 16.0047 22.1157 16.0891 22.1157C16.1735 22.1157 16.2424 22.1846 16.2424 22.269Z" fill="#F55B5D"/>
<path d="M15.4914 22.8047C15.4914 22.8892 15.4226 22.958 15.3381 22.958C15.2537 22.958 15.1848 22.8892 15.1848 22.8047C15.1848 22.7203 15.2537 22.6514 15.3381 22.6514C15.4226 22.6492 15.4914 22.7203 15.4914 22.8047Z" fill="#F55B5D"/>
<path d="M16.6736 22.958C16.6736 23.0424 16.6047 23.1113 16.5203 23.1113C16.4358 23.1113 16.3669 23.0424 16.3669 22.958C16.3669 22.8736 16.4358 22.8047 16.5203 22.8047C16.6047 22.8047 16.6736 22.8736 16.6736 22.958Z" fill="#F55B5D"/>
<path d="M17.4599 22.8047C17.4599 22.8892 17.3911 22.958 17.3066 22.958C17.2222 22.958 17.1533 22.8892 17.1533 22.8047C17.1533 22.7203 17.2222 22.6514 17.3066 22.6514C17.3911 22.6492 17.4599 22.7203 17.4599 22.8047Z" fill="#F55B5D"/>
<path d="M17.1023 22.0513C17.1023 22.1357 17.0334 22.2046 16.949 22.2046C16.8645 22.2046 16.7957 22.1357 16.7957 22.0513C16.7957 21.9668 16.8645 21.8979 16.949 21.8979C17.0334 21.8979 17.1023 21.9668 17.1023 22.0513Z" fill="#F55B5D"/>
<path d="M23.7903 21.8979C23.7903 21.9824 23.8592 22.0513 23.9436 22.0513C24.028 22.0513 24.0969 21.9824 24.0969 21.8979C24.0969 21.8135 24.028 21.7446 23.9436 21.7446C23.8592 21.7446 23.7903 21.8135 23.7903 21.8979Z" fill="#F55B5D"/>
<path d="M23.1926 22.4223C23.2773 22.4223 23.3459 22.3537 23.3459 22.269C23.3459 22.1844 23.2773 22.1157 23.1926 22.1157C23.1079 22.1157 23.0393 22.1844 23.0393 22.269C23.0393 22.3537 23.1079 22.4223 23.1926 22.4223Z" fill="#F55B5D"/>
<path d="M23.7903 22.8047C23.7903 22.8892 23.8592 22.958 23.9436 22.958C24.028 22.958 24.0969 22.8892 24.0969 22.8047C24.0969 22.7203 24.028 22.6514 23.9436 22.6514C23.8592 22.6492 23.7903 22.7203 23.7903 22.8047Z" fill="#F55B5D"/>
<path d="M22.6106 22.958C22.6106 23.0424 22.6795 23.1113 22.7639 23.1113C22.8483 23.1113 22.9172 23.0424 22.9172 22.958C22.9172 22.8736 22.8483 22.8047 22.7639 22.8047C22.6795 22.8047 22.6106 22.8736 22.6106 22.958Z" fill="#F55B5D"/>
<path d="M21.8218 22.8047C21.8218 22.8892 21.8907 22.958 21.9751 22.958C22.0595 22.958 22.1284 22.8892 22.1284 22.8047C22.1284 22.7203 22.0595 22.6514 21.9751 22.6514C21.8907 22.6492 21.8218 22.7203 21.8218 22.8047Z" fill="#F55B5D"/>
<path d="M22.1794 22.0513C22.1794 22.1357 22.2483 22.2046 22.3328 22.2046C22.4172 22.2046 22.4861 22.1357 22.4861 22.0513C22.4861 21.9668 22.4172 21.8979 22.3328 21.8979C22.2483 21.8979 22.1794 21.9668 22.1794 22.0513Z" fill="#F55B5D"/>
<path d="M30.9677 34.657C26.1168 33.216 22.6916 30.6682 19.5342 29.5205C16.3768 30.6682 12.9516 33.216 8.10074 34.657C0.4036 36.9422 -1.51941 26.6615 3.97417 23.0756C8.80975 19.9208 8.23336 19.3928 9.49836 13.9834C9.57997 13.6315 9.66924 13.2616 9.77125 12.8663C9.88092 12.4328 10.0008 11.9737 10.136 11.484C10.215 11.1984 10.2992 10.9229 10.3859 10.6551C11.707 6.59488 15.4918 4.03171 19.5368 4.17198C23.5817 4.03171 27.3665 6.59488 28.6876 10.6551C28.7744 10.9204 28.856 11.1984 28.9376 11.484C29.0728 11.9737 29.1952 12.4328 29.3023 12.8663C29.4018 13.2616 29.491 13.634 29.5752 13.9834C30.8402 19.3954 30.2638 19.9208 35.0994 23.0756C40.5904 26.6589 38.6648 36.9396 30.9677 34.657Z" fill="#5A184A"/>
<path d="M39.4122 40.0014H1.40601C1.40601 40.0014 1.91609 37.5836 2.64295 35.1556C3.36982 32.7276 4.87201 31.71 6.81798 31.2127C7.36631 31.0724 8.37117 30.7791 9.53161 30.4348C10.1871 30.2384 10.8961 30.0242 11.5974 29.8125C14.0458 29.0678 16.4356 28.3256 16.4356 28.3256L20.3887 28.0094L20.4117 28.0068L20.4346 28.0094L24.0001 28.295C24.0001 28.295 26.145 28.9377 28.4863 29.6314C30.6847 30.2792 33.0591 30.973 34.0002 31.2152C35.9462 31.7151 37.4484 32.7302 38.1753 35.1582C38.9021 37.5836 39.4122 40.0014 39.4122 40.0014Z" fill="#E9356E"/>
<path d="M5.58114 34.8536C5.53778 34.8536 5.49697 34.8408 5.46127 34.8128L4.45386 34.0247C4.36969 33.9584 4.35439 33.836 4.4207 33.7493C4.48701 33.6651 4.60943 33.6498 4.69614 33.7161L5.70356 34.5042C5.78772 34.5705 5.80302 34.6929 5.73671 34.7796C5.69591 34.8281 5.6398 34.8536 5.58114 34.8536Z" fill="#C4205C"/>
<path d="M5.58114 39.1099C5.53778 39.1099 5.49697 39.0972 5.46127 39.0691L4.45386 38.2811C4.36969 38.2147 4.35439 38.0923 4.4207 38.0056C4.48701 37.9215 4.60943 37.9061 4.69614 37.9725L5.70356 38.7605C5.78772 38.8268 5.80302 38.9493 5.73671 39.036C5.69591 39.0844 5.6398 39.1099 5.58114 39.1099Z" fill="#C4205C"/>
<path d="M11.4622 33.2925C11.4265 33.2925 11.3908 33.2823 11.3602 33.2645C11.2684 33.2084 11.2403 33.086 11.2964 32.9941L11.9672 31.9051C12.0233 31.8133 12.1457 31.7853 12.2375 31.8414C12.3294 31.8975 12.3574 32.0199 12.3013 32.1117L11.6305 33.2007C11.5923 33.2594 11.5285 33.2925 11.4622 33.2925Z" fill="#C4205C"/>
<path d="M8.2359 37.5338C8.20019 37.5338 8.16448 37.5236 8.13388 37.5057C8.04207 37.4496 8.01401 37.3272 8.07012 37.2354L8.74088 36.1463C8.79699 36.0545 8.91941 36.0265 9.01122 36.0826C9.10304 36.1387 9.13109 36.2611 9.07498 36.3529L8.40422 37.4419C8.36597 37.5006 8.30221 37.5338 8.2359 37.5338Z" fill="#C4205C"/>
<path d="M9.67196 32.1935C9.68472 32.2267 9.68727 32.2624 9.67962 32.3006C9.65921 32.4078 9.55465 32.4741 9.45008 32.4537L8.19528 32.2012C8.08816 32.1808 8.02185 32.0762 8.04225 31.9716C8.06266 31.8645 8.16722 31.7982 8.27179 31.8186L9.52659 32.0711C9.59545 32.0839 9.64901 32.1323 9.67196 32.1935Z" fill="#C4205C"/>
<path d="M13.9923 36.9727C13.9489 36.9727 13.9081 36.96 13.8724 36.9319L12.865 36.1439C12.7808 36.0775 12.7655 35.9551 12.8318 35.8684C12.8981 35.7842 13.0206 35.7689 13.1073 35.8353L14.1147 36.6233C14.1989 36.6896 14.2142 36.8121 14.1478 36.8988C14.107 36.9472 14.0509 36.9727 13.9923 36.9727Z" fill="#C4205C"/>
<path d="M10.3886 39.0795C10.3631 39.0642 10.3401 39.0413 10.3248 39.0132C10.2713 38.9188 10.3019 38.799 10.3963 38.7454L11.5057 38.1078C11.6001 38.0542 11.7199 38.0848 11.7735 38.1792C11.827 38.2736 11.7964 38.3935 11.7021 38.447L10.5926 39.0846C10.5263 39.1203 10.4498 39.1152 10.3886 39.0795Z" fill="#C4205C"/>
<path d="M27.846 34.8536C27.8027 34.8536 27.7619 34.8408 27.7262 34.8128L26.7187 34.0247C26.6346 33.9584 26.6193 33.836 26.6856 33.7493C26.7519 33.6651 26.8743 33.6498 26.961 33.7161L27.9685 34.5042C28.0526 34.5705 28.0679 34.6929 28.0016 34.7796C27.9608 34.8281 27.9047 34.8536 27.846 34.8536Z" fill="#C4205C"/>
<path d="M27.846 39.1099C27.8027 39.1099 27.7619 39.0972 27.7262 39.0691L26.7187 38.2811C26.6346 38.2147 26.6193 38.0923 26.6856 38.0056C26.7519 37.9215 26.8743 37.9061 26.961 37.9725L27.9685 38.7605C28.0526 38.8268 28.0679 38.9493 28.0016 39.036C27.9608 39.0844 27.9047 39.1099 27.846 39.1099Z" fill="#C4205C"/>
<path d="M33.73 33.2925C33.6943 33.2925 33.6586 33.2823 33.628 33.2645C33.5362 33.2084 33.5082 33.086 33.5643 32.9941L34.235 31.9051C34.2911 31.8133 34.4135 31.7853 34.5054 31.8414C34.5972 31.8975 34.6252 32.0199 34.5691 32.1117L33.8984 33.2007C33.8576 33.2594 33.7938 33.2925 33.73 33.2925Z" fill="#C4205C"/>
<path d="M30.5037 37.5338C30.468 37.5338 30.4323 37.5236 30.4017 37.5057C30.3099 37.4496 30.2818 37.3272 30.3379 37.2354L31.0087 36.1463C31.0648 36.0545 31.1872 36.0265 31.279 36.0826C31.3709 36.1387 31.3989 36.2611 31.3428 36.3529L30.672 37.4419C30.6338 37.5006 30.57 37.5338 30.5037 37.5338Z" fill="#C4205C"/>
<path d="M37.3694 39.3345C37.3337 39.3345 37.298 39.3243 37.2674 39.3065C37.1756 39.2504 37.1476 39.128 37.2037 39.0361L37.8744 37.9471C37.9305 37.8553 38.053 37.8272 38.1448 37.8834C38.2366 37.9395 38.2646 38.0619 38.2085 38.1537L37.5378 39.2427C37.4995 39.3014 37.4358 39.3345 37.3694 39.3345Z" fill="#C4205C"/>
<path d="M31.9369 32.1935C31.9496 32.2267 31.9522 32.2624 31.9445 32.3006C31.9241 32.4078 31.8195 32.4741 31.715 32.4537L30.4602 32.2012C30.3531 32.1808 30.2867 32.0762 30.3071 31.9716C30.3275 31.8645 30.4321 31.7982 30.5367 31.8186L31.7915 32.0711C31.8603 32.0839 31.9139 32.1323 31.9369 32.1935Z" fill="#C4205C"/>
<path d="M36.2574 36.1641C36.2141 36.1641 36.1732 36.1514 36.1375 36.1233L35.1301 35.3353C35.046 35.2689 35.0307 35.1465 35.097 35.0598C35.1633 34.9757 35.2857 34.9603 35.3724 35.0267L36.3798 35.8147C36.464 35.8811 36.4793 36.0035 36.413 36.0902C36.3747 36.1386 36.3161 36.1641 36.2574 36.1641Z" fill="#C4205C"/>
<path d="M32.6562 39.0795C32.6307 39.0642 32.6077 39.0413 32.5924 39.0132C32.5389 38.9188 32.5695 38.799 32.6638 38.7454L33.7733 38.1078C33.8676 38.0542 33.9875 38.0848 34.0411 38.1792C34.0946 38.2736 34.064 38.3935 33.9696 38.447L32.8602 39.0846C32.7939 39.1203 32.7148 39.1152 32.6562 39.0795Z" fill="#C4205C"/>
<path d="M20.3939 35.5928C20.3582 35.5928 20.3224 35.5826 20.2918 35.5648C20.2 35.5087 20.172 35.3862 20.2281 35.2944L20.8988 34.2054C20.9549 34.1136 21.0774 34.0855 21.1692 34.1417C21.261 34.1978 21.2891 34.3202 21.2329 34.412L20.5622 35.501C20.5239 35.5597 20.4602 35.5928 20.3939 35.5928Z" fill="#C4205C"/>
<path d="M17.285 39.0132C17.2493 39.0132 17.2136 39.003 17.183 38.9852C17.0911 38.9291 17.0631 38.8067 17.1192 38.7148L17.7899 37.6258C17.8461 37.534 17.9685 37.506 18.0603 37.5621C18.1521 37.6182 18.1802 37.7406 18.1241 37.8324L17.4533 38.9214C17.415 38.9801 17.3513 39.0132 17.285 39.0132Z" fill="#C4205C"/>
<path d="M17.5296 34.9123C17.5424 34.9454 17.5449 34.9811 17.5373 35.0194C17.5169 35.1265 17.4123 35.1928 17.3077 35.1724L16.0529 34.9199C15.9458 34.8995 15.8795 34.795 15.8999 34.6904C15.9203 34.5833 16.0249 34.517 16.1295 34.5374L17.3843 34.7899C17.4531 34.8026 17.5067 34.8511 17.5296 34.9123Z" fill="#C4205C"/>
<path d="M24.8824 36.0343C24.8391 36.0343 24.7982 36.0215 24.7625 35.9934L23.7551 35.2054C23.671 35.1391 23.6557 35.0166 23.722 34.9299C23.7883 34.8458 23.9107 34.8305 23.9974 34.8968L25.0048 35.6849C25.089 35.7512 25.1043 35.8736 25.038 35.9603C24.9972 36.0088 24.9411 36.0343 24.8824 36.0343Z" fill="#C4205C"/>
<path d="M21.0571 39.1254C21.0316 39.1101 21.0086 39.0872 20.9933 39.0591C20.9397 38.9647 20.9703 38.8449 21.0647 38.7913L22.1741 38.1537C22.2685 38.1001 22.3884 38.1307 22.4419 38.2251C22.4955 38.3195 22.4649 38.4394 22.3705 38.4929L21.2611 39.1305C21.1948 39.1688 21.1183 39.1637 21.0571 39.1254Z" fill="#C4205C"/>
<path d="M20.4323 28.0005V28.0057L20.4116 28.0031L20.4323 28.0005Z" fill="#5D46C2"/>
<path d="M20.4119 28.0031L20.3887 28.0057V28.0005L20.4119 28.0031Z" fill="#5D46C2"/>
<path d="M23.9361 29.2602C23.9361 29.2602 22.9517 31.1016 20.2023 31.1016C17.5448 31.1016 16.4277 29.1684 16.4277 29.1684L16.591 27.8447L16.619 27.6229L16.8741 25.5366L23.449 25.7203L23.5587 26.5134L23.5944 26.7736L23.9361 29.2602Z" fill="#FF8881"/>
<path d="M26.5146 32.109C24.8797 34.2156 21.3296 33.0807 20.1768 31.5402C19.024 33.0807 15.4764 34.2131 13.839 32.109C12.2629 30.0814 16.5322 28.314 16.5322 28.314C16.9684 30.2778 19.3632 30.9077 20.1768 31.0608C20.9904 30.9077 23.3699 30.2803 23.806 28.314C23.8035 28.314 28.0882 30.0789 26.5146 32.109Z" fill="#F5EFFF"/>
<path d="M23.5536 26.511C22.0641 27.7734 19.654 28.2529 16.5884 27.8423L16.6164 27.6204L16.8715 25.5342L23.4464 25.7178L23.5536 26.511Z" fill="#19274B"/>
<path d="M14.4027 20.1098C12.9311 22.1629 9.76609 20.7755 9.98032 18.0516C10.1767 15.5803 12.9362 15.973 12.9362 15.973L14.4027 20.1098Z" fill="#F55B5D"/>
<path d="M12.8752 21.1757C12.8752 21.6807 12.4671 22.0888 11.9621 22.0888C11.4571 22.0888 11.0491 21.6807 11.0491 21.1757C11.0491 20.6708 11.4571 20.2627 11.9621 20.2627C12.4671 20.2627 12.8752 20.6708 12.8752 21.1757Z" fill="#FFAC32"/>
<path d="M13.0485 20.1607C12.9593 20.1607 12.8802 20.0995 12.8573 20.0103C12.5716 18.8422 11.3551 17.7481 11.3449 17.7379C11.2633 17.6664 11.2556 17.5415 11.3296 17.4599C11.401 17.3783 11.526 17.3706 11.6076 17.4446C11.6611 17.493 12.9261 18.628 13.2424 19.9159C13.2679 20.0205 13.2041 20.1276 13.0996 20.1531C13.0792 20.1582 13.0638 20.1607 13.0485 20.1607Z" fill="#D1373F"/>
<path d="M12.5435 19.0513C12.5231 19.0513 12.5027 19.0488 12.4823 19.0411C11.9442 18.8601 11.4315 18.9697 11.4264 18.9723C11.3219 18.9952 11.2173 18.9289 11.1918 18.8244C11.1688 18.7198 11.2352 18.6152 11.3397 18.5897C11.3652 18.5846 11.962 18.4545 12.6073 18.6713C12.7093 18.7045 12.7654 18.8167 12.7322 18.9187C12.7016 18.9978 12.6251 19.0513 12.5435 19.0513Z" fill="#D1373F"/>
<path d="M25.2905 20.1098C26.7621 22.1629 29.9272 20.7755 29.7129 18.0516C29.5166 15.5803 26.757 15.973 26.757 15.973L25.2905 20.1098Z" fill="#F55B5D"/>
<path d="M28.726 21.1757C28.726 21.6807 28.3179 22.0888 27.813 22.0888C27.308 22.0888 26.8999 21.6807 26.8999 21.1757C26.8999 20.6708 27.308 20.2627 27.813 20.2627C28.3179 20.2627 28.726 20.6708 28.726 21.1757Z" fill="#FFAC32"/>
<path d="M26.6449 20.1607C26.6296 20.1607 26.6143 20.1581 26.599 20.1556C26.4944 20.1301 26.4281 20.023 26.4562 19.9184C26.7724 18.6304 28.0374 17.493 28.091 17.4471C28.1726 17.3756 28.295 17.3833 28.369 17.4624C28.4404 17.544 28.4327 17.6664 28.3537 17.7403C28.3409 17.7506 27.1269 18.8421 26.8413 20.0128C26.8132 20.102 26.7316 20.1607 26.6449 20.1607Z" fill="#D1373F"/>
<path d="M27.1498 19.0515C27.0682 19.0515 26.9917 19.0004 26.9636 18.9163C26.9305 18.8143 26.984 18.702 27.0886 18.6689C27.7339 18.4521 28.3307 18.5822 28.3562 18.5873C28.4607 18.6102 28.5296 18.7148 28.5041 18.8219C28.4811 18.9265 28.3766 18.9928 28.2694 18.9698C28.2643 18.9698 27.7517 18.8602 27.2136 19.0387C27.1932 19.0464 27.1702 19.0515 27.1498 19.0515Z" fill="#D1373F"/>
<path d="M12.3522 12.9686C12.3522 12.9686 11.633 17.4216 13.4948 21.7777C15.1806 25.7258 17.425 26.9551 19.8147 26.9933C22.5309 27.0367 28.2183 25.4656 27.318 12.5784C26.7085 3.8713 13.0714 4.1799 12.3522 12.9686Z" fill="#FF8881"/>
<path d="M11.9622 14.9375C11.9622 14.9375 12.105 17.697 13.2501 17.5924C14.3952 17.4879 13.8393 11.2751 13.8393 11.2751C13.8393 11.2751 14.8594 12.7798 16.7212 12.6166C18.583 12.4534 16.8947 10.033 16.8947 10.033C16.8947 10.033 18.6111 12.4202 20.1847 12.3233C21.7557 12.2264 20.1847 9.28065 20.1847 9.28065C20.1847 9.28065 22.2378 12.6166 23.7144 12.5197C25.1911 12.4228 23.9414 9.64282 23.9414 9.64282C23.9414 9.64282 25.1172 12.7186 26.2394 12.9456C26.2394 12.9456 25.9563 17.4751 27.1575 17.2838C28.3562 17.0926 27.9124 12.03 27.4202 10.4921C26.928 8.9542 24.2832 5.09543 19.1951 5.58511C14.0994 6.07479 12.054 8.88789 11.9622 14.9375Z" fill="#5A184A"/>
<path d="M14.8875 15.2255C14.8875 15.2255 15.928 13.7769 17.721 13.5907C18.0117 13.5601 18.2693 13.7845 18.2871 14.0753V14.0804C18.305 14.3762 18.0704 14.6262 17.7745 14.6313C17.1012 14.6389 15.9204 14.7358 14.8875 15.2255Z" fill="#5A184A"/>
<path d="M24.9461 15.2255C24.9461 15.2255 23.9055 13.7769 22.1126 13.5907C21.8218 13.5601 21.5642 13.7845 21.5464 14.0753V14.0804C21.5285 14.3762 21.7632 14.6262 22.059 14.6313C22.7323 14.6389 23.9157 14.7358 24.9461 15.2255Z" fill="#5A184A"/>
<path d="M20.1513 24.6824C19.5928 24.6824 19.149 24.4861 19.1209 24.4733C19.0393 24.435 19.0011 24.3381 19.0393 24.2565C19.0776 24.1749 19.1745 24.1366 19.2561 24.1749C19.2714 24.18 20.2763 24.6212 21.0848 24.0907C21.1613 24.0423 21.2607 24.0627 21.3117 24.1366C21.3602 24.2132 21.3398 24.3126 21.2658 24.3636C20.8935 24.6059 20.5007 24.6824 20.1513 24.6824Z" fill="#F55B5D"/>
<path d="M20.7303 20.515C20.7252 20.515 20.7227 20.515 20.7176 20.515L19.5214 20.4181C19.4322 20.4105 19.3633 20.3314 19.3709 20.2421C19.3786 20.1529 19.4577 20.0866 19.5469 20.0917L20.5467 20.1733L20.2355 17.1332C20.2253 17.0439 20.2916 16.9623 20.3809 16.9546C20.4702 16.9444 20.5518 17.0108 20.5594 17.1L20.891 20.3365C20.8961 20.385 20.8782 20.4334 20.8451 20.4666C20.817 20.4972 20.7737 20.515 20.7303 20.515Z" fill="#F55B5D"/>
<path d="M17.5857 21.8184C19.0573 22.0479 20.5544 22.1474 22.559 21.7495C22.559 21.7495 22.3856 23.8919 20.006 23.8995C17.9836 23.9072 17.5857 21.8184 17.5857 21.8184Z" fill="#F5EFFF"/>
<path d="M17.4685 17.1157C17.4685 17.6819 17.2109 18.1435 16.8921 18.1435C16.5733 18.1435 16.3157 17.6844 16.3157 17.1157C16.3157 16.5495 16.5733 16.0879 16.8921 16.0879C17.2109 16.0904 17.4685 16.5495 17.4685 17.1157Z" fill="#19274B"/>
<path d="M23.0156 18.1435C23.3339 18.1435 23.592 17.6834 23.592 17.1157C23.592 16.5481 23.3339 16.0879 23.0156 16.0879C22.6973 16.0879 22.4392 16.5481 22.4392 17.1157C22.4392 17.6834 22.6973 18.1435 23.0156 18.1435Z" fill="#19274B"/>
<path d="M15.3642 19.2224C15.3642 19.3193 15.2851 19.3983 15.1882 19.3983C15.0913 19.3983 15.0122 19.3193 15.0122 19.2224C15.0122 19.1254 15.0913 19.0464 15.1882 19.0464C15.2851 19.0464 15.3642 19.1254 15.3642 19.2224Z" fill="#F55B5D"/>
<path d="M16.0478 19.8241C16.145 19.8241 16.2238 19.7453 16.2238 19.6481C16.2238 19.551 16.145 19.4722 16.0478 19.4722C15.9506 19.4722 15.8718 19.551 15.8718 19.6481C15.8718 19.7453 15.9506 19.8241 16.0478 19.8241Z" fill="#F55B5D"/>
<path d="M15.3642 20.263C15.3642 20.3599 15.2851 20.4389 15.1882 20.4389C15.0913 20.4389 15.0122 20.3599 15.0122 20.263C15.0122 20.166 15.0913 20.087 15.1882 20.087C15.2851 20.0844 15.3642 20.166 15.3642 20.263Z" fill="#F55B5D"/>
<path d="M16.7184 20.4387C16.7184 20.5356 16.6393 20.6147 16.5424 20.6147C16.4455 20.6147 16.3665 20.5356 16.3665 20.4387C16.3665 20.3418 16.4455 20.2627 16.5424 20.2627C16.6393 20.2627 16.7184 20.3418 16.7184 20.4387Z" fill="#F55B5D"/>
<path d="M17.6212 20.263C17.6212 20.3599 17.5422 20.4389 17.4453 20.4389C17.3483 20.4389 17.2693 20.3599 17.2693 20.263C17.2693 20.166 17.3483 20.087 17.4453 20.087C17.5422 20.0844 17.6212 20.166 17.6212 20.263Z" fill="#F55B5D"/>
<path d="M17.2106 19.3981C17.2106 19.4951 17.1315 19.5741 17.0346 19.5741C16.9377 19.5741 16.8586 19.4951 16.8586 19.3981C16.8586 19.3012 16.9377 19.2222 17.0346 19.2222C17.1315 19.2222 17.2106 19.3012 17.2106 19.3981Z" fill="#F55B5D"/>
<path d="M24.8875 19.2224C24.8875 19.3193 24.9665 19.3983 25.0634 19.3983C25.1603 19.3983 25.2394 19.3193 25.2394 19.2224C25.2394 19.1255 25.1603 19.0464 25.0634 19.0464C24.9665 19.0464 24.8875 19.1255 24.8875 19.2224Z" fill="#F55B5D"/>
<path d="M24.2041 19.8241C24.3012 19.8241 24.38 19.7453 24.38 19.6481C24.38 19.551 24.3012 19.4722 24.2041 19.4722C24.1069 19.4722 24.0281 19.551 24.0281 19.6481C24.0281 19.7453 24.1069 19.8241 24.2041 19.8241Z" fill="#F55B5D"/>
<path d="M24.8875 20.263C24.8875 20.3599 24.9665 20.4389 25.0634 20.4389C25.1603 20.4389 25.2394 20.3599 25.2394 20.263C25.2394 20.166 25.1603 20.087 25.0634 20.087C24.9665 20.0844 24.8875 20.166 24.8875 20.263Z" fill="#F55B5D"/>
<path d="M23.5332 20.4387C23.5332 20.5356 23.6123 20.6147 23.7092 20.6147C23.8061 20.6147 23.8852 20.5356 23.8852 20.4387C23.8852 20.3418 23.8061 20.2627 23.7092 20.2627C23.6123 20.2627 23.5332 20.3418 23.5332 20.4387Z" fill="#F55B5D"/>
<path d="M22.6304 20.263C22.6304 20.3599 22.7094 20.4389 22.8064 20.4389C22.9033 20.4389 22.9823 20.3599 22.9823 20.263C22.9823 20.166 22.9033 20.087 22.8064 20.087C22.7094 20.0844 22.6304 20.166 22.6304 20.263Z" fill="#F55B5D"/>
<path d="M23.041 19.3981C23.041 19.4951 23.1201 19.5741 23.217 19.5741C23.3139 19.5741 23.393 19.4951 23.393 19.3981C23.393 19.3012 23.3139 19.2222 23.217 19.2222C23.1201 19.2222 23.041 19.3012 23.041 19.3981Z" fill="#F55B5D"/>
<path d="M16.6623 20.4795C15.0734 20.4795 13.7778 19.1864 13.7778 17.595C13.7778 16.0061 15.0709 14.7104 16.6623 14.7104C18.2513 14.7104 19.5469 16.0035 19.5469 17.595C19.5443 19.1864 18.2513 20.4795 16.6623 20.4795ZM16.6623 14.9731C15.2163 14.9731 14.0405 16.1489 14.0405 17.595C14.0405 19.041 15.2163 20.2168 16.6623 20.2168C18.1084 20.2168 19.2842 19.041 19.2842 17.595C19.2842 16.1489 18.1059 14.9731 16.6623 14.9731Z" fill="#F5EFFF"/>
<path d="M23.6047 20.4795C22.0158 20.4795 20.7202 19.1864 20.7202 17.595C20.7202 16.0061 22.0133 14.7104 23.6047 14.7104C25.1936 14.7104 26.4892 16.0035 26.4892 17.595C26.4867 19.1864 25.1936 20.4795 23.6047 20.4795ZM23.6047 14.9731C22.1586 14.9731 20.9829 16.1489 20.9829 17.595C20.9829 19.041 22.1586 20.2168 23.6047 20.2168C25.0508 20.2168 26.2265 19.041 26.2265 17.595C26.2265 16.1489 25.0508 14.9731 23.6047 14.9731Z" fill="#F5EFFF"/>
<path d="M26.1932 16.7915C26.1626 16.7915 26.1294 16.7813 26.1039 16.7584C26.0504 16.7099 26.0478 16.6257 26.0963 16.5747C26.132 16.5365 26.9838 15.6158 28.2616 15.8275C28.333 15.8402 28.3815 15.9065 28.3687 15.9779C28.356 16.0494 28.2896 16.0978 28.2182 16.0851C27.0808 15.8989 26.2978 16.7431 26.2901 16.7507C26.2646 16.7762 26.2289 16.7915 26.1932 16.7915Z" fill="#F5EFFF"/>
<path d="M14.0916 16.7382C14.0585 16.7382 14.0228 16.7255 13.9973 16.6974C13.982 16.6821 12.9516 15.6517 11.6815 16.0777C11.6126 16.1006 11.5387 16.0649 11.5157 15.996C11.4928 15.9272 11.5285 15.8532 11.5973 15.8303C13.0307 15.3508 14.1375 16.4679 14.186 16.5163C14.237 16.5673 14.2345 16.6515 14.1835 16.7025C14.158 16.7255 14.1248 16.7382 14.0916 16.7382Z" fill="#F5EFFF"/>
<path d="M19.4143 17.3322C19.4118 17.3322 19.4092 17.3322 19.4067 17.3322C19.3353 17.3271 19.2792 17.2659 19.2843 17.1919C19.2996 16.9624 19.4959 16.5288 20.1335 16.5288C20.7711 16.5288 20.9675 16.9624 20.9828 17.1919C20.9879 17.2633 20.9318 17.3271 20.8604 17.3322C20.789 17.3373 20.7252 17.2812 20.7201 17.2098C20.7176 17.169 20.6691 16.7915 20.131 16.7915C19.5776 16.7915 19.5444 17.1919 19.5444 17.2098C19.5393 17.2786 19.4832 17.3322 19.4143 17.3322Z" fill="#F5EFFF"/>
</g>
</g>
</g>
</svg>
