<svg width="950" height="470" viewBox="0 0 950 470" fill="none" xmlns="http://www.w3.org/2000/svg">
<g filter="url(#filter0_d_26_2579)">
<rect x="50" y="35" width="850" height="370" rx="10" fill="white"/>
</g>
<path d="M72.7045 57.3636H70.392L74.4886 69H77.0909L81.1932 57.3636H78.875L75.8523 66.5227H75.733L72.7045 57.3636ZM82.2349 69H84.2918V60.2727H82.2349V69ZM83.269 59.0341C83.9224 59.0341 84.4565 58.5341 84.4565 57.9205C84.4565 57.3011 83.9224 56.8011 83.269 56.8011C82.6099 56.8011 82.0759 57.3011 82.0759 57.9205C82.0759 58.5341 82.6099 59.0341 83.269 59.0341ZM92.9045 62.5795C92.6205 61.1023 91.4386 60.1591 89.3932 60.1591C87.2909 60.1591 85.8591 61.1932 85.8648 62.8068C85.8591 64.0795 86.6432 64.9205 88.3193 65.267L89.808 65.5795C90.6091 65.7557 90.9841 66.0795 90.9841 66.5739C90.9841 67.1705 90.3364 67.6193 89.3591 67.6193C88.4159 67.6193 87.8023 67.2102 87.6261 66.4261L85.6205 66.6193C85.8761 68.2216 87.2227 69.1705 89.3648 69.1705C91.5466 69.1705 93.0864 68.0398 93.092 66.3864C93.0864 65.142 92.2852 64.3807 90.6375 64.0227L89.1489 63.7045C88.2625 63.5057 87.9102 63.1989 87.9159 62.6932C87.9102 62.1023 88.5636 61.6932 89.4216 61.6932C90.3705 61.6932 90.8705 62.2102 91.0295 62.7841L92.9045 62.5795ZM94.3881 69H96.4449V60.2727H94.3881V69ZM95.4222 59.0341C96.0756 59.0341 96.6097 58.5341 96.6097 57.9205C96.6097 57.3011 96.0756 56.8011 95.4222 56.8011C94.7631 56.8011 94.229 57.3011 94.229 57.9205C94.229 58.5341 94.7631 59.0341 95.4222 59.0341ZM102.518 60.2727H100.796V58.1818H98.7395V60.2727H97.5009V61.8636H98.7395V66.7159C98.7281 68.358 99.9213 69.1648 101.467 69.1193C102.052 69.1023 102.455 68.9886 102.677 68.9148L102.33 67.3068C102.217 67.3352 101.984 67.3864 101.728 67.3864C101.211 67.3864 100.796 67.2045 100.796 66.375V61.8636H102.518V60.2727ZM107.551 69.1705C110.108 69.1705 111.733 67.3693 111.733 64.6705C111.733 61.9659 110.108 60.1591 107.551 60.1591C104.994 60.1591 103.369 61.9659 103.369 64.6705C103.369 67.3693 104.994 69.1705 107.551 69.1705ZM107.562 67.5227C106.148 67.5227 105.455 66.2614 105.455 64.6648C105.455 63.0682 106.148 61.7898 107.562 61.7898C108.955 61.7898 109.648 63.0682 109.648 64.6648C109.648 66.2614 108.955 67.5227 107.562 67.5227ZM113.079 69H115.136V63.8693C115.136 62.7614 115.971 61.9773 117.101 61.9773C117.448 61.9773 117.88 62.0398 118.056 62.0966V60.2045C117.868 60.1705 117.545 60.1477 117.317 60.1477C116.317 60.1477 115.482 60.7159 115.164 61.7273H115.073V60.2727H113.079V69ZM129.489 62.5795C129.205 61.1023 128.023 60.1591 125.978 60.1591C123.875 60.1591 122.443 61.1932 122.449 62.8068C122.443 64.0795 123.228 64.9205 124.904 65.267L126.392 65.5795C127.193 65.7557 127.568 66.0795 127.568 66.5739C127.568 67.1705 126.921 67.6193 125.943 67.6193C125 67.6193 124.387 67.2102 124.211 66.4261L122.205 66.6193C122.461 68.2216 123.807 69.1705 125.949 69.1705C128.131 69.1705 129.671 68.0398 129.676 66.3864C129.671 65.142 128.87 64.3807 127.222 64.0227L125.733 63.7045C124.847 63.5057 124.495 63.1989 124.5 62.6932C124.495 62.1023 125.148 61.6932 126.006 61.6932C126.955 61.6932 127.455 62.2102 127.614 62.7841L129.489 62.5795ZM135.33 60.2727H133.609V58.1818H131.552V60.2727H130.313V61.8636H131.552V66.7159C131.541 68.358 132.734 69.1648 134.279 69.1193C134.864 69.1023 135.268 68.9886 135.489 68.9148L135.143 67.3068C135.029 67.3352 134.796 67.3864 134.541 67.3864C134.024 67.3864 133.609 67.2045 133.609 66.375V61.8636H135.33V60.2727ZM139.162 69.1761C140.531 69.1761 141.349 68.5341 141.724 67.8011H141.793V69H143.77V63.1591C143.77 60.8523 141.889 60.1591 140.224 60.1591C138.389 60.1591 136.98 60.9773 136.526 62.5682L138.446 62.8409C138.651 62.2443 139.23 61.733 140.236 61.733C141.19 61.733 141.713 62.2216 141.713 63.0795V63.1136C141.713 63.7045 141.094 63.733 139.554 63.8977C137.861 64.0795 136.241 64.5852 136.241 66.5511C136.241 68.267 137.497 69.1761 139.162 69.1761ZM139.696 67.6648C138.838 67.6648 138.224 67.2727 138.224 66.517C138.224 65.7273 138.912 65.3977 139.832 65.267C140.372 65.1932 141.452 65.0568 141.719 64.8409V65.8693C141.719 66.8409 140.935 67.6648 139.696 67.6648ZM149.796 60.2727H148.074V58.1818H146.018V60.2727H144.779V61.8636H146.018V66.7159C146.006 68.358 147.199 69.1648 148.745 69.1193C149.33 69.1023 149.734 68.9886 149.955 68.9148L149.609 67.3068C149.495 67.3352 149.262 67.3864 149.006 67.3864C148.489 67.3864 148.074 67.2045 148.074 66.375V61.8636H149.796V60.2727ZM151.116 69H153.173V60.2727H151.116V69ZM152.15 59.0341C152.804 59.0341 153.338 58.5341 153.338 57.9205C153.338 57.3011 152.804 56.8011 152.15 56.8011C151.491 56.8011 150.957 57.3011 150.957 57.9205C150.957 58.5341 151.491 59.0341 152.15 59.0341ZM161.786 62.5795C161.502 61.1023 160.32 60.1591 158.274 60.1591C156.172 60.1591 154.74 61.1932 154.746 62.8068C154.74 64.0795 155.524 64.9205 157.201 65.267L158.689 65.5795C159.49 65.7557 159.865 66.0795 159.865 66.5739C159.865 67.1705 159.218 67.6193 158.24 67.6193C157.297 67.6193 156.684 67.2102 156.507 66.4261L154.502 66.6193C154.757 68.2216 156.104 69.1705 158.246 69.1705C160.428 69.1705 161.968 68.0398 161.973 66.3864C161.968 65.142 161.166 64.3807 159.519 64.0227L158.03 63.7045C157.144 63.5057 156.791 63.1989 156.797 62.6932C156.791 62.1023 157.445 61.6932 158.303 61.6932C159.252 61.6932 159.752 62.2102 159.911 62.7841L161.786 62.5795ZM167.627 60.2727H165.906V58.1818H163.849V60.2727H162.61V61.8636H163.849V66.7159C163.838 68.358 165.031 69.1648 166.576 69.1193C167.161 69.1023 167.565 68.9886 167.786 68.9148L167.44 67.3068C167.326 67.3352 167.093 67.3864 166.838 67.3864C166.32 67.3864 165.906 67.2045 165.906 66.375V61.8636H167.627V60.2727ZM168.947 69H171.004V60.2727H168.947V69ZM169.982 59.0341C170.635 59.0341 171.169 58.5341 171.169 57.9205C171.169 57.3011 170.635 56.8011 169.982 56.8011C169.322 56.8011 168.788 57.3011 168.788 57.9205C168.788 58.5341 169.322 59.0341 169.982 59.0341ZM176.526 69.1705C178.719 69.1705 180.117 67.8693 180.265 66.017H178.299C178.123 66.9545 177.447 67.4943 176.543 67.4943C175.259 67.4943 174.43 66.4205 174.43 64.6364C174.43 62.875 175.276 61.8182 176.543 61.8182C177.532 61.8182 178.14 62.4545 178.299 63.2955H180.265C180.123 61.4034 178.645 60.1591 176.515 60.1591C173.958 60.1591 172.344 62.0057 172.344 64.6705C172.344 67.3125 173.918 69.1705 176.526 69.1705ZM188.451 62.5795C188.167 61.1023 186.986 60.1591 184.94 60.1591C182.838 60.1591 181.406 61.1932 181.412 62.8068C181.406 64.0795 182.19 64.9205 183.866 65.267L185.355 65.5795C186.156 65.7557 186.531 66.0795 186.531 66.5739C186.531 67.1705 185.883 67.6193 184.906 67.6193C183.963 67.6193 183.349 67.2102 183.173 66.4261L181.167 66.6193C181.423 68.2216 182.77 69.1705 184.912 69.1705C187.093 69.1705 188.633 68.0398 188.639 66.3864C188.633 65.142 187.832 64.3807 186.184 64.0227L184.696 63.7045C183.809 63.5057 183.457 63.1989 183.463 62.6932C183.457 62.1023 184.111 61.6932 184.968 61.6932C185.917 61.6932 186.417 62.2102 186.576 62.7841L188.451 62.5795Z" fill="#171717"/>
<path d="M79.3068 85.8182H78.0938V93.8324H77.9943L72.4261 85.8182H71.233V96H72.4659V88.0057H72.5653L78.1136 96H79.3068V85.8182ZM84.2172 96.1591C86.2853 96.1591 87.6774 94.5881 87.6774 92.2216C87.6774 89.8352 86.2853 88.2642 84.2172 88.2642C82.149 88.2642 80.7569 89.8352 80.7569 92.2216C80.7569 94.5881 82.149 96.1591 84.2172 96.1591ZM84.2172 95.1051C82.6461 95.1051 81.9302 93.7528 81.9302 92.2216C81.9302 90.6903 82.6461 89.3182 84.2172 89.3182C85.7882 89.3182 86.5041 90.6903 86.5041 92.2216C86.5041 93.7528 85.7882 95.1051 84.2172 95.1051ZM94.9393 88.3636H93.6665L91.5586 94.4489H91.479L89.3711 88.3636H88.0984L90.9222 96H92.1154L94.9393 88.3636ZM103.8 91.0881H99.3459V92.1818H103.8V91.0881ZM112.859 85.8182V93.0966C112.859 94.3643 112.253 95.0455 111.189 95.0455C110.219 95.0455 109.518 94.4787 109.518 93.6136H108.305C108.305 95.1797 109.518 96.1392 111.189 96.1392C112.959 96.1392 114.092 95.0504 114.092 93.0966V85.8182H112.859ZM120.716 92.8778C120.716 94.3097 119.623 94.9659 118.748 94.9659C117.773 94.9659 117.077 94.25 117.077 93.1364V88.3636H115.904V93.2159C115.904 95.1648 116.938 96.0994 118.37 96.0994C119.523 96.0994 120.279 95.483 120.637 94.7074H120.716V96H121.89V88.3636H120.716V92.8778ZM124.712 85.8182H123.539V96H124.712V85.8182ZM127.117 98.8636C128.176 98.8636 128.921 98.3018 129.364 97.1136L132.615 88.3835L131.333 88.3636L129.225 94.4489H129.145L127.037 88.3636H125.764L128.588 96.0398L128.369 96.6364C127.942 97.7997 127.415 97.9091 126.56 97.6903L126.262 98.7244C126.381 98.7841 126.719 98.8636 127.117 98.8636Z" fill="#B9B9B9"/>
<path d="M81.8552 134.882H80.5726L78.395 136.305V137.566L80.4831 136.203H80.5342V143.609H81.8552V134.882ZM86.9544 143.754C88.97 143.754 90.1504 142.109 90.1504 139.25C90.1504 136.411 88.953 134.762 86.9544 134.762C84.9515 134.762 83.7584 136.407 83.7541 139.25C83.7541 142.105 84.9345 143.75 86.9544 143.754ZM86.9544 142.616C85.774 142.616 85.0623 141.431 85.0623 139.25C85.0666 137.076 85.7782 135.879 86.9544 135.879C88.1263 135.879 88.8422 137.076 88.8422 139.25C88.8422 141.431 88.1305 142.616 86.9544 142.616ZM94.4005 143.754C96.4161 143.754 97.5965 142.109 97.5965 139.25C97.5965 136.411 96.3991 134.762 94.4005 134.762C92.3976 134.762 91.2045 136.407 91.2002 139.25C91.2002 142.105 92.3806 143.75 94.4005 143.754ZM94.4005 142.616C93.2201 142.616 92.5084 141.431 92.5084 139.25C92.5127 137.076 93.2243 135.879 94.4005 135.879C95.5723 135.879 96.2883 137.076 96.2883 139.25C96.2883 141.431 95.5766 142.616 94.4005 142.616Z" fill="#B9B9B9"/>
<path d="M94.4005 360.291C96.4161 360.291 97.5965 358.646 97.5965 355.787C97.5965 352.949 96.399 351.3 94.4005 351.3C92.3976 351.3 91.2044 352.945 91.2002 355.787C91.2002 358.642 92.3806 360.287 94.4005 360.291ZM94.4005 359.154C93.2201 359.154 92.5084 357.969 92.5084 355.787C92.5127 353.614 93.2243 352.416 94.4005 352.416C95.5723 352.416 96.2882 353.614 96.2882 355.787C96.2882 357.969 95.5766 359.154 94.4005 359.154Z" fill="#B9B9B9"/>
<path d="M84.6074 287.967H90.3517V286.838H86.4227V286.774L88.1571 284.959C89.7551 283.344 90.2111 282.572 90.2111 281.597C90.2111 280.195 89.069 279.121 87.4241 279.121C85.792 279.121 84.5989 280.178 84.5989 281.771H85.856C85.8517 280.834 86.4568 280.22 87.3986 280.22C88.2849 280.22 88.9582 280.766 88.9582 281.635C88.9582 282.406 88.498 282.96 87.5605 283.953L84.6074 287.013V287.967ZM94.5474 288.087C96.3031 288.087 97.556 286.847 97.5517 285.146C97.556 283.459 96.3798 282.231 94.7903 282.231C94.1426 282.231 93.5418 282.479 93.2009 282.811H93.1497L93.4267 280.369H97.1298V279.24H92.3315L91.8415 283.638L93.0474 283.817C93.3756 283.523 93.9636 283.322 94.492 283.322C95.5276 283.331 96.2776 284.106 96.2776 285.172C96.2776 286.22 95.5489 286.979 94.5474 286.979C93.7037 286.979 93.0347 286.442 92.9665 285.692H91.6881C91.7392 287.081 92.9452 288.087 94.5474 288.087Z" fill="#B9B9B9"/>
<path d="M87.1013 215.907C88.857 215.907 90.1099 214.667 90.1056 212.967C90.1099 211.28 88.9337 210.052 87.3442 210.052C86.6965 210.052 86.0957 210.299 85.7548 210.632H85.7036L85.9806 208.19H89.6837V207.061H84.8854L84.3954 211.459L85.6013 211.638C85.9295 211.343 86.5175 211.143 87.0459 211.143C88.0815 211.152 88.8315 211.927 88.8315 212.993C88.8315 214.041 88.1028 214.799 87.1013 214.799C86.2576 214.799 85.5886 214.263 85.5204 213.513H84.242C84.2931 214.902 85.4991 215.907 87.1013 215.907ZM94.4004 215.933C96.416 215.933 97.5964 214.288 97.5964 211.429C97.5964 208.591 96.399 206.941 94.4004 206.941C92.3976 206.941 91.2044 208.586 91.2001 211.429C91.2001 214.284 92.3805 215.929 94.4004 215.933ZM94.4004 214.795C93.22 214.795 92.5084 213.611 92.5084 211.429C92.5126 209.255 93.2243 208.058 94.4004 208.058C95.5723 208.058 96.2882 209.255 96.2882 211.429C96.2882 213.611 95.5766 214.795 94.4004 214.795Z" fill="#B9B9B9"/>
<path d="M635.092 68.0254H638.965V69.209H633.609V60.6777H635.092V68.0254ZM645.294 67.2227H641.99L641.298 69.209H639.757L642.98 60.6777H644.31L647.538 69.209H645.992L645.294 67.2227ZM642.406 66.0273H644.878L643.642 62.4883L642.406 66.0273ZM653.27 67.0117C653.27 66.6367 653.137 66.3477 652.872 66.1445C652.61 65.9414 652.135 65.7363 651.448 65.5293C650.76 65.3223 650.213 65.0918 649.807 64.8379C649.03 64.3496 648.641 63.7129 648.641 62.9277C648.641 62.2402 648.92 61.6738 649.479 61.2285C650.042 60.7832 650.77 60.5605 651.665 60.5605C652.258 60.5605 652.788 60.6699 653.252 60.8887C653.717 61.1074 654.083 61.4199 654.348 61.8262C654.614 62.2285 654.747 62.6758 654.747 63.168H653.27C653.27 62.7227 653.129 62.375 652.848 62.125C652.571 61.8711 652.172 61.7441 651.653 61.7441C651.168 61.7441 650.792 61.8477 650.522 62.0547C650.256 62.2617 650.124 62.5508 650.124 62.9219C650.124 63.2344 650.268 63.4961 650.557 63.707C650.846 63.9141 651.323 64.1172 651.987 64.3164C652.651 64.5117 653.184 64.7363 653.586 64.9902C653.989 65.2402 654.284 65.5293 654.471 65.8574C654.659 66.1816 654.752 66.5625 654.752 67C654.752 67.7109 654.479 68.2773 653.932 68.6992C653.389 69.1172 652.651 69.3262 651.717 69.3262C651.1 69.3262 650.532 69.2129 650.012 68.9863C649.497 68.7559 649.094 68.4395 648.805 68.0371C648.52 67.6348 648.377 67.166 648.377 66.6309H649.86C649.86 67.1152 650.02 67.4902 650.34 67.7559C650.661 68.0215 651.12 68.1543 651.717 68.1543C652.233 68.1543 652.62 68.0508 652.877 67.8438C653.139 67.6328 653.27 67.3555 653.27 67.0117ZM662.517 61.873H659.857V69.209H658.386V61.873H655.75V60.6777H662.517V61.873ZM671.08 60.6367V61.8145H670.904C670.108 61.8262 669.471 62.0449 668.994 62.4707C668.518 62.8965 668.234 63.5 668.145 64.2812C668.602 63.8008 669.186 63.5605 669.897 63.5605C670.651 63.5605 671.244 63.8262 671.678 64.3574C672.115 64.8887 672.334 65.5742 672.334 66.4141C672.334 67.2812 672.078 67.9844 671.567 68.5234C671.059 69.0586 670.391 69.3262 669.563 69.3262C668.711 69.3262 668.02 69.0117 667.488 68.3828C666.961 67.7539 666.697 66.9297 666.697 65.9102V65.4238C666.697 63.9277 667.061 62.7559 667.787 61.9082C668.518 61.0605 669.567 60.6367 670.934 60.6367H671.08ZM669.551 64.709C669.238 64.709 668.951 64.7969 668.69 64.9727C668.432 65.1484 668.242 65.3828 668.121 65.6758V66.1094C668.121 66.7422 668.254 67.2461 668.52 67.6211C668.785 67.9922 669.129 68.1777 669.551 68.1777C669.973 68.1777 670.307 68.0195 670.553 67.7031C670.799 67.3867 670.922 66.9707 670.922 66.4551C670.922 65.9395 670.797 65.5195 670.547 65.1953C670.297 64.8711 669.965 64.709 669.551 64.709ZM679.209 60.6777L681.67 67.2168L684.126 60.6777H686.042V69.209H684.565V66.3965L684.711 62.6348L682.192 69.209H681.131L678.618 62.6406L678.764 66.3965V69.209H677.288V60.6777H679.209ZM694.908 65.166C694.908 66.002 694.763 66.7363 694.474 67.3691C694.185 67.998 693.771 68.4824 693.232 68.8223C692.697 69.1582 692.08 69.3262 691.381 69.3262C690.689 69.3262 690.072 69.1582 689.529 68.8223C688.99 68.4824 688.572 68 688.275 67.375C687.982 66.75 687.834 66.0293 687.83 65.2129V64.7324C687.83 63.9004 687.976 63.166 688.269 62.5293C688.566 61.8926 688.982 61.4062 689.517 61.0703C690.056 60.7305 690.674 60.5605 691.369 60.5605C692.064 60.5605 692.679 60.7285 693.215 61.0645C693.754 61.3965 694.17 61.877 694.463 62.5059C694.756 63.1309 694.904 63.8594 694.908 64.6914V65.166ZM693.426 64.7207C693.426 63.7754 693.246 63.0508 692.886 62.5469C692.531 62.043 692.025 61.791 691.369 61.791C690.728 61.791 690.226 62.043 689.863 62.5469C689.504 63.0469 689.32 63.7559 689.312 64.6738V65.166C689.312 66.1035 689.494 66.8281 689.857 67.3398C690.224 67.8516 690.732 68.1074 691.381 68.1074C692.037 68.1074 692.541 67.8574 692.892 67.3574C693.248 66.8574 693.426 66.127 693.426 65.166V64.7207ZM703.452 69.209H701.97L698.167 63.1562V69.209H696.684V60.6777H698.167L701.981 66.7539V60.6777H703.452V69.209ZM711.492 61.873H708.832V69.209H707.361V61.873H704.725V60.6777H711.492V61.873ZM719.691 69.209H718.214V65.418H714.4V69.209H712.917V60.6777H714.4V64.2285H718.214V60.6777H719.691V69.209ZM726.208 67.0117C726.208 66.6367 726.075 66.3477 725.809 66.1445C725.547 65.9414 725.073 65.7363 724.385 65.5293C723.698 65.3223 723.151 65.0918 722.745 64.8379C721.967 64.3496 721.579 63.7129 721.579 62.9277C721.579 62.2402 721.858 61.6738 722.417 61.2285C722.979 60.7832 723.708 60.5605 724.602 60.5605C725.196 60.5605 725.725 60.6699 726.19 60.8887C726.655 61.1074 727.02 61.4199 727.286 61.8262C727.551 62.2285 727.684 62.6758 727.684 63.168H726.208C726.208 62.7227 726.067 62.375 725.786 62.125C725.508 61.8711 725.11 61.7441 724.59 61.7441C724.106 61.7441 723.729 61.8477 723.459 62.0547C723.194 62.2617 723.061 62.5508 723.061 62.9219C723.061 63.2344 723.206 63.4961 723.495 63.707C723.784 63.9141 724.26 64.1172 724.924 64.3164C725.588 64.5117 726.122 64.7363 726.524 64.9902C726.926 65.2402 727.221 65.5293 727.409 65.8574C727.596 66.1816 727.69 66.5625 727.69 67C727.69 67.7109 727.417 68.2773 726.87 68.6992C726.327 69.1172 725.588 69.3262 724.655 69.3262C724.038 69.3262 723.469 69.2129 722.95 68.9863C722.434 68.7559 722.032 68.4395 721.743 68.0371C721.458 67.6348 721.315 67.166 721.315 66.6309H722.797C722.797 67.1152 722.958 67.4902 723.278 67.7559C723.598 68.0215 724.057 68.1543 724.655 68.1543C725.17 68.1543 725.557 68.0508 725.815 67.8438C726.077 67.6328 726.208 67.3555 726.208 67.0117Z" fill="#B9B9B9"/>
<path d="M640.016 92.1543H641.43V93.6777H640.016V96.209H638.117V93.6777H633.203L633.149 92.5215L638.055 84.834H640.016V92.1543ZM635.141 92.1543H638.117V87.4043L637.977 87.6543L635.141 92.1543ZM649.858 85.8887L645.311 96.209H643.319L647.858 86.3574H641.975V84.834H649.858V85.8887ZM651.489 90.5684L652.106 84.834H658.216V86.4746H653.684L653.372 89.1934C653.898 88.8913 654.492 88.7402 655.153 88.7402C656.237 88.7402 657.078 89.0866 657.677 89.7793C658.281 90.472 658.583 91.4043 658.583 92.5762C658.583 93.7324 658.25 94.6543 657.583 95.3418C656.916 96.0241 656.002 96.3652 654.841 96.3652C653.799 96.3652 652.934 96.071 652.247 95.4824C651.565 94.8887 651.195 94.1074 651.138 93.1387H652.974C653.046 93.6908 653.244 94.1152 653.567 94.4121C653.89 94.7038 654.312 94.8496 654.833 94.8496C655.416 94.8496 655.869 94.6413 656.192 94.2246C656.52 93.8079 656.684 93.2402 656.684 92.5215C656.684 91.8288 656.505 91.2819 656.145 90.8809C655.786 90.4746 655.291 90.2715 654.661 90.2715C654.317 90.2715 654.026 90.3184 653.786 90.4121C653.546 90.5007 653.286 90.6777 653.005 90.9434L651.489 90.5684ZM670.908 96.209H663.259V94.9043L667.049 90.7715C667.595 90.1621 667.983 89.6543 668.213 89.248C668.447 88.8366 668.564 88.4251 668.564 88.0137C668.564 87.472 668.411 87.0345 668.103 86.7012C667.801 86.3678 667.392 86.2012 666.877 86.2012C666.262 86.2012 665.786 86.3887 665.447 86.7637C665.108 87.1387 664.939 87.6517 664.939 88.3027H663.041C663.041 87.61 663.197 86.9876 663.509 86.4355C663.827 85.8783 664.278 85.446 664.861 85.1387C665.45 84.8314 666.127 84.6777 666.892 84.6777C667.996 84.6777 668.866 84.9564 669.502 85.5137C670.142 86.0658 670.463 86.8314 670.463 87.8105C670.463 88.3783 670.301 88.9746 669.978 89.5996C669.661 90.2194 669.137 90.9251 668.408 91.7168L665.627 94.6934H670.908V96.209ZM679.524 85.8887L674.977 96.209H672.984L677.524 86.3574H671.641V84.834H679.524V85.8887ZM682.842 89.6543H683.999C684.582 89.6491 685.043 89.498 685.381 89.2012C685.725 88.9043 685.897 88.4746 685.897 87.9121C685.897 87.3704 685.754 86.9512 685.467 86.6543C685.186 86.3522 684.754 86.2012 684.17 86.2012C683.66 86.2012 683.241 86.3496 682.913 86.6465C682.584 86.9382 682.42 87.321 682.42 87.7949H680.522C680.522 87.2116 680.676 86.6803 680.983 86.2012C681.295 85.722 681.728 85.3496 682.28 85.084C682.837 84.8132 683.459 84.6777 684.147 84.6777C685.282 84.6777 686.173 84.9642 686.819 85.5371C687.47 86.1048 687.795 86.8965 687.795 87.9121C687.795 88.4225 687.631 88.9043 687.303 89.3574C686.98 89.8053 686.561 90.1439 686.045 90.373C686.67 90.5866 687.144 90.9225 687.467 91.3809C687.795 91.8392 687.959 92.3861 687.959 93.0215C687.959 94.0423 687.608 94.8548 686.905 95.459C686.207 96.0632 685.288 96.3652 684.147 96.3652C683.053 96.3652 682.157 96.0736 681.459 95.4902C680.762 94.9069 680.413 94.1309 680.413 93.1621H682.311C682.311 93.6621 682.478 94.0684 682.811 94.3809C683.15 94.6934 683.603 94.8496 684.17 94.8496C684.759 94.8496 685.223 94.6934 685.561 94.3809C685.9 94.0684 686.069 93.6152 686.069 93.0215C686.069 92.4225 685.892 91.9616 685.538 91.6387C685.183 91.3158 684.657 91.1543 683.959 91.1543H682.842V89.6543Z" fill="#171717"/>
<rect x="616.742" y="60.209" width="8" height="8" rx="4" fill="#5F2EEA"/>
<path d="M795.203 66.0391V69.209H793.72V60.6777H796.984C797.937 60.6777 798.693 60.9258 799.252 61.4219C799.814 61.918 800.095 62.5742 800.095 63.3906C800.095 64.2266 799.82 64.877 799.269 65.3418C798.722 65.8066 797.955 66.0391 796.966 66.0391H795.203ZM795.203 64.8496H796.984C797.511 64.8496 797.914 64.7266 798.191 64.4805C798.468 64.2305 798.607 63.8711 798.607 63.4023C798.607 62.9414 798.466 62.5742 798.185 62.3008C797.904 62.0234 797.517 61.8809 797.025 61.873H795.203V64.8496ZM804.831 65.9219H803.179V69.209H801.696V60.6777H804.696C805.68 60.6777 806.44 60.8984 806.975 61.3398C807.511 61.7812 807.778 62.4199 807.778 63.2559C807.778 63.8262 807.639 64.3047 807.362 64.6914C807.089 65.0742 806.706 65.3691 806.214 65.5762L808.13 69.1328V69.209H806.542L804.831 65.9219ZM803.179 64.7324H804.702C805.202 64.7324 805.593 64.6074 805.874 64.3574C806.155 64.1035 806.296 63.7578 806.296 63.3203C806.296 62.8633 806.165 62.5098 805.903 62.2598C805.645 62.0098 805.259 61.8809 804.743 61.873H803.179V64.7324ZM814.471 65.4004H810.967V68.0254H815.063V69.209H809.484V60.6777H815.022V61.873H810.967V64.2285H814.471V65.4004ZM819.575 67.3516L821.743 60.6777H823.372L820.302 69.209H818.866L815.808 60.6777H817.431L819.575 67.3516ZM826.204 69.209H824.727V60.6777H826.204V69.209ZM835.134 65.166C835.134 66.002 834.99 66.7363 834.701 67.3691C834.412 67.998 833.998 68.4824 833.459 68.8223C832.923 69.1582 832.306 69.3262 831.607 69.3262C830.916 69.3262 830.298 69.1582 829.755 68.8223C829.216 68.4824 828.798 68 828.502 67.375C828.209 66.75 828.06 66.0293 828.056 65.2129V64.7324C828.056 63.9004 828.203 63.166 828.496 62.5293C828.793 61.8926 829.209 61.4062 829.744 61.0703C830.283 60.7305 830.9 60.5605 831.595 60.5605C832.291 60.5605 832.906 60.7285 833.441 61.0645C833.98 61.3965 834.396 61.877 834.689 62.5059C834.982 63.1309 835.13 63.8594 835.134 64.6914V65.166ZM833.652 64.7207C833.652 63.7754 833.472 63.0508 833.113 62.5469C832.757 62.043 832.252 61.791 831.595 61.791C830.955 61.791 830.453 62.043 830.089 62.5469C829.73 63.0469 829.547 63.7559 829.539 64.6738V65.166C829.539 66.1035 829.72 66.8281 830.084 67.3398C830.451 67.8516 830.959 68.1074 831.607 68.1074C832.263 68.1074 832.767 67.8574 833.119 67.3574C833.474 66.8574 833.652 66.127 833.652 65.166V64.7207ZM843.151 60.6777V66.3789C843.151 67.2852 842.86 68.0039 842.278 68.5352C841.7 69.0625 840.929 69.3262 839.964 69.3262C838.987 69.3262 838.212 69.0664 837.638 68.5469C837.063 68.0234 836.776 67.2988 836.776 66.373V60.6777H838.253V66.3848C838.253 66.9551 838.397 67.3906 838.686 67.6914C838.975 67.9922 839.401 68.1426 839.964 68.1426C841.104 68.1426 841.675 67.541 841.675 66.3379V60.6777H843.151ZM849.498 67.0117C849.498 66.6367 849.365 66.3477 849.1 66.1445C848.838 65.9414 848.363 65.7363 847.676 65.5293C846.988 65.3223 846.441 65.0918 846.035 64.8379C845.258 64.3496 844.869 63.7129 844.869 62.9277C844.869 62.2402 845.148 61.6738 845.707 61.2285C846.27 60.7832 846.998 60.5605 847.893 60.5605C848.486 60.5605 849.016 60.6699 849.48 60.8887C849.945 61.1074 850.311 61.4199 850.576 61.8262C850.842 62.2285 850.975 62.6758 850.975 63.168H849.498C849.498 62.7227 849.357 62.375 849.076 62.125C848.799 61.8711 848.4 61.7441 847.881 61.7441C847.397 61.7441 847.02 61.8477 846.75 62.0547C846.484 62.2617 846.352 62.5508 846.352 62.9219C846.352 63.2344 846.496 63.4961 846.785 63.707C847.074 63.9141 847.551 64.1172 848.215 64.3164C848.879 64.5117 849.412 64.7363 849.814 64.9902C850.217 65.2402 850.512 65.5293 850.699 65.8574C850.887 66.1816 850.98 66.5625 850.98 67C850.98 67.7109 850.707 68.2773 850.16 68.6992C849.617 69.1172 848.879 69.3262 847.945 69.3262C847.328 69.3262 846.76 69.2129 846.24 68.9863C845.725 68.7559 845.322 68.4395 845.033 68.0371C844.748 67.6348 844.605 67.166 844.605 66.6309H846.088C846.088 67.1152 846.248 67.4902 846.568 67.7559C846.889 68.0215 847.348 68.1543 847.945 68.1543C848.461 68.1543 848.848 68.0508 849.105 67.8438C849.367 67.6328 849.498 67.3555 849.498 67.0117Z" fill="#B9B9B9"/>
<path d="M801.275 85.8887L796.728 96.209H794.736L799.275 86.3574H793.392V84.834H801.275V85.8887ZM809.563 87.834C809.563 88.3913 809.419 88.8887 809.133 89.3262C808.846 89.7585 808.456 90.0996 807.961 90.3496C808.555 90.6257 809.01 91.0033 809.328 91.4824C809.651 91.9616 809.813 92.5033 809.813 93.1074C809.813 94.1074 809.474 94.9017 808.797 95.4902C808.12 96.0736 807.219 96.3652 806.094 96.3652C804.964 96.3652 804.057 96.071 803.375 95.4824C802.698 94.8939 802.359 94.1022 802.359 93.1074C802.359 92.498 802.521 91.9512 802.844 91.4668C803.167 90.9824 803.62 90.61 804.203 90.3496C803.714 90.0996 803.326 89.7585 803.039 89.3262C802.758 88.8887 802.617 88.3913 802.617 87.834C802.617 86.8652 802.93 86.097 803.555 85.5293C804.18 84.9616 805.023 84.6777 806.086 84.6777C807.154 84.6777 808 84.9616 808.625 85.5293C809.25 86.097 809.563 86.8652 809.563 87.834ZM807.914 93.0137C807.914 92.4512 807.745 91.998 807.406 91.6543C807.073 91.3053 806.63 91.1309 806.078 91.1309C805.526 91.1309 805.083 91.3027 804.75 91.6465C804.422 91.9902 804.258 92.446 804.258 93.0137C804.258 93.571 804.419 94.0163 804.742 94.3496C805.07 94.6829 805.521 94.8496 806.094 94.8496C806.667 94.8496 807.112 94.6882 807.43 94.3652C807.753 94.0423 807.914 93.5918 807.914 93.0137ZM807.672 87.9043C807.672 87.4095 807.529 87.0033 807.242 86.6855C806.956 86.3626 806.57 86.2012 806.086 86.2012C805.602 86.2012 805.219 86.3548 804.938 86.6621C804.656 86.9642 804.516 87.3783 804.516 87.9043C804.516 88.4251 804.656 88.8392 804.938 89.1465C805.224 89.4538 805.609 89.6074 806.094 89.6074C806.578 89.6074 806.961 89.4538 807.242 89.1465C807.529 88.8392 807.672 88.4251 807.672 87.9043ZM818.741 96.209H811.092V94.9043L814.881 90.7715C815.428 90.1621 815.816 89.6543 816.045 89.248C816.28 88.8366 816.397 88.4251 816.397 88.0137C816.397 87.472 816.243 87.0345 815.936 86.7012C815.634 86.3678 815.225 86.2012 814.709 86.2012C814.095 86.2012 813.618 86.3887 813.28 86.7637C812.941 87.1387 812.772 87.6517 812.772 88.3027H810.873C810.873 87.61 811.03 86.9876 811.342 86.4355C811.66 85.8783 812.11 85.446 812.694 85.1387C813.282 84.8314 813.959 84.6777 814.725 84.6777C815.829 84.6777 816.699 84.9564 817.334 85.5137C817.975 86.0658 818.295 86.8314 818.295 87.8105C818.295 88.3783 818.134 88.9746 817.811 89.5996C817.493 90.2194 816.97 90.9251 816.241 91.7168L813.459 94.6934H818.741V96.209ZM825.566 89.6543H826.722C827.305 89.6491 827.766 89.498 828.105 89.2012C828.448 88.9043 828.62 88.4746 828.62 87.9121C828.62 87.3704 828.477 86.9512 828.191 86.6543C827.909 86.3522 827.477 86.2012 826.894 86.2012C826.383 86.2012 825.964 86.3496 825.636 86.6465C825.308 86.9382 825.144 87.321 825.144 87.7949H823.245C823.245 87.2116 823.399 86.6803 823.706 86.2012C824.019 85.722 824.451 85.3496 825.003 85.084C825.56 84.8132 826.183 84.6777 826.87 84.6777C828.006 84.6777 828.896 84.9642 829.542 85.5371C830.193 86.1048 830.519 86.8965 830.519 87.9121C830.519 88.4225 830.355 88.9043 830.027 89.3574C829.704 89.8053 829.284 90.1439 828.769 90.373C829.394 90.5866 829.868 90.9225 830.191 91.3809C830.519 91.8392 830.683 92.3861 830.683 93.0215C830.683 94.0423 830.331 94.8548 829.628 95.459C828.93 96.0632 828.011 96.3652 826.87 96.3652C825.777 96.3652 824.881 96.0736 824.183 95.4902C823.485 94.9069 823.136 94.1309 823.136 93.1621H825.034C825.034 93.6621 825.201 94.0684 825.534 94.3809C825.873 94.6934 826.326 94.8496 826.894 94.8496C827.482 94.8496 827.946 94.6934 828.284 94.3809C828.623 94.0684 828.792 93.6152 828.792 93.0215C828.792 92.4225 828.615 91.9616 828.261 91.6387C827.907 91.3158 827.381 91.1543 826.683 91.1543H825.566V89.6543ZM837.447 91.4512C836.811 92.123 836.069 92.459 835.22 92.459C834.22 92.459 833.423 92.11 832.83 91.4121C832.236 90.709 831.939 89.7871 831.939 88.6465C831.939 87.8965 832.09 87.2168 832.392 86.6074C832.694 85.998 833.124 85.5241 833.681 85.1855C834.239 84.847 834.884 84.6777 835.619 84.6777C836.765 84.6777 837.673 85.1048 838.345 85.959C839.017 86.8132 839.353 87.9564 839.353 89.3887V89.9199C839.353 91.972 838.89 93.5371 837.963 94.6152C837.035 95.6934 835.653 96.2402 833.814 96.2559H833.588V94.6855H833.861C834.981 94.6699 835.84 94.4017 836.439 93.8809C837.038 93.3548 837.374 92.5449 837.447 91.4512ZM835.619 90.9746C835.999 90.9746 836.356 90.8652 836.689 90.6465C837.022 90.4277 837.28 90.1257 837.463 89.7402V88.998C837.463 88.1595 837.291 87.485 836.947 86.9746C836.603 86.4642 836.158 86.209 835.611 86.209C835.064 86.209 834.627 86.4355 834.298 86.8887C833.976 87.3366 833.814 87.9043 833.814 88.5918C833.814 89.3053 833.978 89.8809 834.306 90.3184C834.634 90.7559 835.072 90.9746 835.619 90.9746ZM846.664 84.7793V86.3496H846.43C845.367 86.3652 844.518 86.6569 843.883 87.2246C843.247 87.7923 842.87 88.597 842.75 89.6387C843.359 88.998 844.138 88.6777 845.086 88.6777C846.091 88.6777 846.883 89.0319 847.461 89.7402C848.044 90.4486 848.336 91.3626 848.336 92.4824C848.336 93.6387 847.995 94.5762 847.313 95.2949C846.635 96.0085 845.745 96.3652 844.641 96.3652C843.505 96.3652 842.583 95.946 841.875 95.1074C841.172 94.2689 840.82 93.1699 840.82 91.8105V91.1621C840.82 89.1673 841.305 87.6048 842.273 86.4746C843.247 85.3444 844.646 84.7793 846.469 84.7793H846.664ZM844.625 90.209C844.208 90.209 843.826 90.3262 843.477 90.5605C843.133 90.7949 842.88 91.1074 842.719 91.498V92.0762C842.719 92.9199 842.896 93.5918 843.25 94.0918C843.604 94.5866 844.063 94.834 844.625 94.834C845.188 94.834 845.633 94.623 845.961 94.2012C846.289 93.7793 846.453 93.2246 846.453 92.5371C846.453 91.8496 846.286 91.2897 845.953 90.8574C845.62 90.4251 845.177 90.209 844.625 90.209Z" fill="#171717"/>
<rect x="776.853" y="60.209" width="8" height="8" rx="4" fill="#4BDE97"/>
<rect x="107.981" y="139.787" width="0.588643" height="225.943" stroke="#EEEEEE" stroke-width="0.588643" stroke-dasharray="4 4"/>
<rect x="874.394" y="139.787" width="0.588643" height="225.943" stroke="#EEEEEE" stroke-width="0.588643" stroke-dasharray="4 4"/>
<rect x="217.175" y="139.493" width="1.17729" height="226.531" fill="#EEEEEE"/>
<rect x="326.662" y="139.493" width="1.17729" height="226.531" fill="#EEEEEE"/>
<rect x="436.15" y="139.493" width="1.17729" height="226.531" fill="#EEEEEE"/>
<rect x="545.637" y="139.493" width="1.17729" height="226.531" fill="#EEEEEE"/>
<rect x="655.125" y="139.493" width="1.17729" height="226.531" fill="#EEEEEE"/>
<rect x="764.612" y="139.493" width="1.17729" height="226.531" fill="#EEEEEE"/>
<path d="M108.864 311.809C108.864 311.809 141.939 277.062 162.611 277.062C183.283 277.062 196.72 288.644 217.909 288.644C239.098 288.644 251.501 271.271 272.173 271.271C292.845 271.271 314.5 298.5 335.5 294.5C356.5 290.5 361.062 320.496 381.734 320.496C402.406 320.496 415.843 262.584 437.032 262.584C458.22 262.584 470.623 297.331 491.295 297.331C511.967 297.331 525.404 279.957 546.593 279.957C567.782 279.957 569.281 314.705 601.89 314.705C634.5 314.705 635.482 256.793 656.154 256.793C676.826 256.793 690.78 282.853 711.452 282.853C732.124 282.853 745.044 248.106 765.716 248.106C786.388 248.106 800.341 279.957 821.013 279.957C841.685 279.957 875.277 206.12 875.277 206.12" stroke="#4BDE97" stroke-width="2"/>
<path d="M108.864 274.967C108.864 274.967 141.939 274.967 162.611 274.967C183.283 274.967 196.72 230.549 217.909 230.549C239.098 230.549 251.501 297.176 272.173 297.176C292.845 297.176 306.281 252.758 327.47 252.758C348.659 252.758 361.062 308.281 381.734 308.281C402.406 308.281 415.843 263.863 437.032 263.863C458.22 263.863 470.623 330.49 491.295 330.49C511.967 330.49 525.404 197.236 546.593 197.236C567.782 197.236 581.218 330.49 601.89 330.49C622.562 330.49 635.482 286.072 656.154 286.072C676.826 286.072 690.78 252.758 711.452 252.758C732.124 252.758 745.044 319.385 765.716 319.385C786.388 319.385 800.341 263.863 821.013 263.863C841.685 263.863 875.277 273.857 875.277 273.857" stroke="#5F2EEA" stroke-width="2"/>
<path d="M699.039 369.186V377.914H700.292V371.594H700.373L702.947 377.901H703.987L706.561 371.598H706.642V377.914H707.894V369.186H706.296L703.518 375.97H703.416L700.637 369.186H699.039ZM711.311 378.058C712.394 378.058 713.003 377.509 713.246 377.019H713.297V377.914H714.541V373.567C714.541 371.662 713.041 371.283 712.002 371.283C710.817 371.283 709.726 371.76 709.3 372.953L710.497 373.226C710.685 372.762 711.162 372.314 712.019 372.314C712.841 372.314 713.263 372.745 713.263 373.486V373.516C713.263 373.98 712.786 373.972 711.61 374.108C710.37 374.253 709.1 374.577 709.1 376.064C709.1 377.351 710.067 378.058 711.311 378.058ZM711.588 377.036C710.868 377.036 710.348 376.712 710.348 376.081C710.348 375.399 710.953 375.156 711.691 375.058C712.104 375.003 713.084 374.892 713.267 374.709V375.553C713.267 376.328 712.649 377.036 711.588 377.036ZM716.51 380.368C717.562 380.368 718.227 379.818 718.606 378.787L721.312 371.381L719.936 371.368L718.278 376.448H718.21L716.552 371.368H715.189L717.583 377.999L717.426 378.433C717.102 379.303 716.646 379.375 715.947 379.183L715.64 380.227C715.794 380.296 716.126 380.368 716.51 380.368Z" fill="#B9B9B9"/>
<path d="M814.131 369.186V375.374C814.126 376.379 813.658 376.916 812.822 376.916C812.051 376.916 811.514 376.456 811.51 375.732H810.202C810.202 377.206 811.31 378.033 812.788 378.033C814.391 378.033 815.439 377.053 815.443 375.374V369.186H814.131ZM821.104 375.199C821.108 376.311 820.281 376.84 819.565 376.84C818.777 376.84 818.232 376.269 818.232 375.378V371.368H816.957V375.531C816.957 377.155 817.848 377.999 819.105 377.999C820.089 377.999 820.759 377.479 821.061 376.78H821.129V377.914H822.382V371.368H821.104V375.199ZM825.068 374.027C825.068 372.983 825.707 372.387 826.594 372.387C827.459 372.387 827.983 372.953 827.983 373.904V377.914H829.257V373.75C829.257 372.131 828.367 371.283 827.028 371.283C826.044 371.283 825.401 371.739 825.098 372.433H825.017V371.368H823.794V377.914H825.068V374.027Z" fill="#B9B9B9"/>
<path d="M592.17 377.914L592.971 375.604H596.38L597.177 377.914H598.575L595.434 369.186H593.913L590.772 377.914H592.17ZM593.355 374.496L594.641 370.772H594.71L595.997 374.496H593.355ZM599.433 380.368H600.707V376.895H600.784C601.014 377.313 601.482 378.041 602.676 378.041C604.261 378.041 605.411 376.772 605.411 374.654C605.411 372.531 604.244 371.283 602.663 371.283C601.448 371.283 601.009 372.024 600.784 372.429H600.677V371.368H599.433V380.368ZM600.681 374.641C600.681 373.273 601.278 372.365 602.39 372.365C603.545 372.365 604.124 373.341 604.124 374.641C604.124 375.953 603.528 376.955 602.39 376.955C601.295 376.955 600.681 376.017 600.681 374.641ZM606.539 377.914H607.813V373.916C607.813 373.06 608.474 372.442 609.377 372.442C609.641 372.442 609.94 372.489 610.042 372.519V371.3C609.914 371.283 609.663 371.27 609.501 371.27C608.734 371.27 608.077 371.705 607.839 372.408H607.77V371.368H606.539V377.914Z" fill="#B9B9B9"/>
<path d="M482.226 369.186V377.914H483.479V371.594H483.56L486.134 377.901H487.173L489.747 371.598H489.828V377.914H491.081V369.186H489.483L486.705 375.97H486.602L483.824 369.186H482.226ZM494.498 378.058C495.58 378.058 496.19 377.509 496.433 377.019H496.484V377.914H497.728V373.567C497.728 371.662 496.228 371.283 495.188 371.283C494.004 371.283 492.913 371.76 492.487 372.953L493.684 373.226C493.872 372.762 494.349 372.314 495.205 372.314C496.028 372.314 496.45 372.745 496.45 373.486V373.516C496.45 373.98 495.972 373.972 494.796 374.108C493.556 374.253 492.286 374.577 492.286 376.064C492.286 377.351 493.254 378.058 494.498 378.058ZM494.775 377.036C494.055 377.036 493.535 376.712 493.535 376.081C493.535 375.399 494.14 375.156 494.877 375.058C495.291 375.003 496.271 374.892 496.454 374.709V375.553C496.454 376.328 495.836 377.036 494.775 377.036ZM499.125 377.914H500.399V373.916C500.399 373.06 501.06 372.442 501.963 372.442C502.228 372.442 502.526 372.489 502.628 372.519V371.3C502.5 371.283 502.249 371.27 502.087 371.27C501.32 371.27 500.664 371.705 500.425 372.408H500.357V371.368H499.125V377.914Z" fill="#B9B9B9"/>
<path d="M372.701 377.914H374.017V374.108H377.725V372.979H374.017V370.32H378.112V369.186H372.701V377.914ZM381.67 378.046C383.098 378.046 384.108 377.343 384.397 376.277L383.191 376.06C382.961 376.678 382.407 376.993 381.683 376.993C380.592 376.993 379.859 376.286 379.825 375.024H384.478V374.573C384.478 372.208 383.064 371.283 381.581 371.283C379.757 371.283 378.555 372.672 378.555 374.683C378.555 376.716 379.74 378.046 381.67 378.046ZM379.829 374.07C379.88 373.141 380.554 372.335 381.589 372.335C382.578 372.335 383.225 373.068 383.23 374.07H379.829ZM385.694 377.914H386.939V376.895H387.045C387.275 377.313 387.744 378.041 388.937 378.041C390.522 378.041 391.673 376.772 391.673 374.654C391.673 372.531 390.505 371.283 388.924 371.283C387.71 371.283 387.271 372.024 387.045 372.429H386.968V369.186H385.694V377.914ZM386.943 374.641C386.943 373.273 387.539 372.365 388.652 372.365C389.807 372.365 390.386 373.341 390.386 374.641C390.386 375.953 389.789 376.955 388.652 376.955C387.557 376.955 386.943 376.017 386.943 374.641Z" fill="#B9B9B9"/>
<path d="M266.845 369.186V375.374C266.841 376.379 266.372 376.916 265.537 376.916C264.766 376.916 264.229 376.456 264.225 375.732H262.916C262.916 377.206 264.024 378.033 265.503 378.033C267.105 378.033 268.154 377.053 268.158 375.374V369.186H266.845ZM271.577 378.058C272.659 378.058 273.269 377.509 273.512 377.019H273.563V377.914H274.807V373.567C274.807 371.662 273.307 371.283 272.267 371.283C271.083 371.283 269.992 371.76 269.566 372.953L270.763 373.226C270.95 372.762 271.428 372.314 272.284 372.314C273.107 372.314 273.529 372.745 273.529 373.486V373.516C273.529 373.98 273.051 373.972 271.875 374.108C270.635 374.253 269.365 374.577 269.365 376.064C269.365 377.351 270.333 378.058 271.577 378.058ZM271.854 377.036C271.134 377.036 270.614 376.712 270.614 376.081C270.614 375.399 271.219 375.156 271.956 375.058C272.369 375.003 273.35 374.892 273.533 374.709V375.553C273.533 376.328 272.915 377.036 271.854 377.036ZM277.478 374.027C277.478 372.983 278.117 372.387 279.004 372.387C279.869 372.387 280.393 372.953 280.393 373.904V377.914H281.667V373.75C281.667 372.131 280.777 371.283 279.438 371.283C278.454 371.283 277.811 371.739 277.508 372.433H277.427V371.368H276.204V377.914H277.478V374.027Z" fill="#B9B9B9"/>
<path d="M155.031 377.914C157.69 377.914 159.228 376.264 159.228 373.537C159.228 370.823 157.69 369.186 155.12 369.186H152.205V377.914H155.031ZM153.522 376.763V370.337H155.039C156.948 370.337 157.933 371.479 157.933 373.537C157.933 375.604 156.948 376.763 154.958 376.763H153.522ZM163.284 378.046C164.712 378.046 165.722 377.343 166.012 376.277L164.806 376.06C164.575 376.678 164.021 376.993 163.297 376.993C162.206 376.993 161.473 376.286 161.439 375.024H166.092V374.573C166.092 372.208 164.678 371.283 163.195 371.283C161.371 371.283 160.169 372.672 160.169 374.683C160.169 376.716 161.354 378.046 163.284 378.046ZM161.443 374.07C161.494 373.141 162.168 372.335 163.203 372.335C164.192 372.335 164.84 373.068 164.844 374.07H161.443ZM169.963 378.046C171.51 378.046 172.512 377.117 172.652 375.843H171.412C171.25 376.55 170.7 376.968 169.972 376.968C168.894 376.968 168.199 376.068 168.199 374.641C168.199 373.239 168.906 372.357 169.972 372.357C170.781 372.357 171.276 372.868 171.412 373.482H172.652C172.516 372.161 171.438 371.283 169.95 371.283C168.105 371.283 166.912 372.672 166.912 374.671C166.912 376.644 168.063 378.046 169.963 378.046Z" fill="#B9B9B9"/>
<defs>
<filter id="filter0_d_26_2579" x="0" y="0" width="950" height="470" filterUnits="userSpaceOnUse" color-interpolation-filters="sRGB">
<feFlood flood-opacity="0" result="BackgroundImageFix"/>
<feColorMatrix in="SourceAlpha" type="matrix" values="0 0 0 0 0 0 0 0 0 0 0 0 0 0 0 0 0 0 127 0" result="hardAlpha"/>
<feOffset dy="15"/>
<feGaussianBlur stdDeviation="25"/>
<feColorMatrix type="matrix" values="0 0 0 0 0.627451 0 0 0 0 0.639216 0 0 0 0 0.741176 0 0 0 0.1 0"/>
<feBlend mode="normal" in2="BackgroundImageFix" result="effect1_dropShadow_26_2579"/>
<feBlend mode="normal" in="SourceGraphic" in2="effect1_dropShadow_26_2579" result="shape"/>
</filter>
</defs>
</svg>
