<svg width="803" height="254" viewBox="0 0 803 254" fill="none" xmlns="http://www.w3.org/2000/svg">
<path d="M7.85523 4.88161H6.57256L4.39501 6.30491V7.56627L6.48307 6.20264H6.53421V13.6089H7.85523V4.88161ZM12.9544 13.7538C14.97 13.7538 16.1504 12.1089 16.1504 9.24951C16.1504 6.41144 14.953 4.7623 12.9544 4.7623C10.9515 4.7623 9.75836 6.40718 9.7541 9.24951C9.7541 12.1046 10.9345 13.7495 12.9544 13.7538ZM12.9544 12.616C11.774 12.616 11.0623 11.4313 11.0623 9.24951C11.0666 7.07622 11.7782 5.87877 12.9544 5.87877C14.1263 5.87877 14.8422 7.07622 14.8422 9.24951C14.8422 11.4313 14.1305 12.616 12.9544 12.616ZM20.4005 13.7538C22.4161 13.7538 23.5965 12.1089 23.5965 9.24951C23.5965 6.41144 22.3991 4.7623 20.4005 4.7623C18.3976 4.7623 17.2045 6.40718 17.2002 9.24951C17.2002 12.1046 18.3806 13.7495 20.4005 13.7538ZM20.4005 12.616C19.2201 12.616 18.5084 11.4313 18.5084 9.24951C18.5127 7.07622 19.2243 5.87877 20.4005 5.87877C21.5723 5.87877 22.2883 7.07622 22.2883 9.24951C22.2883 11.4313 21.5766 12.616 20.4005 12.616Z" fill="#B9B9B9"/>
<path d="M20.4005 230.291C22.4161 230.291 23.5965 228.646 23.5965 225.787C23.5965 222.949 22.399 221.3 20.4005 221.3C18.3976 221.3 17.2044 222.945 17.2002 225.787C17.2002 228.642 18.3806 230.287 20.4005 230.291ZM20.4005 229.154C19.2201 229.154 18.5084 227.969 18.5084 225.787C18.5127 223.614 19.2243 222.416 20.4005 222.416C21.5723 222.416 22.2882 223.614 22.2882 225.787C22.2882 227.969 21.5766 229.154 20.4005 229.154Z" fill="#B9B9B9"/>
<path d="M10.6074 157.967H16.3517V156.838H12.4227V156.774L14.1571 154.959C15.7551 153.344 16.2111 152.572 16.2111 151.597C16.2111 150.195 15.069 149.121 13.4241 149.121C11.792 149.121 10.5989 150.178 10.5989 151.771H11.856C11.8517 150.834 12.4568 150.22 13.3986 150.22C14.2849 150.22 14.9582 150.766 14.9582 151.635C14.9582 152.406 14.498 152.96 13.5605 153.953L10.6074 157.013V157.967ZM20.5474 158.087C22.3031 158.087 23.556 156.847 23.5517 155.146C23.556 153.459 22.3798 152.231 20.7903 152.231C20.1426 152.231 19.5418 152.479 19.2009 152.811H19.1497L19.4267 150.369H23.1298V149.24H18.3315L17.8415 153.638L19.0474 153.817C19.3756 153.523 19.9636 153.322 20.492 153.322C21.5276 153.331 22.2776 154.106 22.2776 155.172C22.2776 156.22 21.5489 156.979 20.5474 156.979C19.7037 156.979 19.0347 156.442 18.9665 155.692H17.6881C17.7392 157.081 18.9452 158.087 20.5474 158.087Z" fill="#B9B9B9"/>
<path d="M13.1013 85.9074C14.857 85.9074 16.1099 84.6673 16.1056 82.9671C16.1099 81.2796 14.9337 80.0523 13.3442 80.0523C12.6965 80.0523 12.0957 80.2994 11.7548 80.6318H11.7036L11.9806 78.1901H15.6837V77.0608H10.8854L10.3954 81.4585L11.6013 81.6375C11.9295 81.3435 12.5175 81.1432 13.0459 81.1432C14.0815 81.1517 14.8315 81.9273 14.8315 82.9926C14.8315 84.0409 14.1028 84.7994 13.1013 84.7994C12.2576 84.7994 11.5886 84.2625 11.5204 83.5125H10.242C10.2931 84.9017 11.4991 85.9074 13.1013 85.9074ZM20.4004 85.933C22.416 85.933 23.5964 84.2881 23.5964 81.4287C23.5964 78.5906 22.399 76.9415 20.4004 76.9415C18.3976 76.9415 17.2044 78.5864 17.2001 81.4287C17.2001 84.2838 18.3805 85.9287 20.4004 85.933ZM20.4004 84.7952C19.22 84.7952 18.5084 83.6105 18.5084 81.4287C18.5126 79.2554 19.2243 78.058 20.4004 78.058C21.5723 78.058 22.2882 79.2554 22.2882 81.4287C22.2882 83.6105 21.5766 84.7952 20.4004 84.7952Z" fill="#B9B9B9"/>
<rect x="33.9813" y="9.787" width="0.588643" height="225.943" stroke="#EEEEEE" stroke-width="0.588643" stroke-dasharray="4 4"/>
<rect x="800.394" y="9.787" width="0.588643" height="225.943" stroke="#EEEEEE" stroke-width="0.588643" stroke-dasharray="4 4"/>
<rect x="143.175" y="9.49268" width="1.17729" height="226.531" fill="#EEEEEE"/>
<rect x="252.662" y="9.49268" width="1.17729" height="226.531" fill="#EEEEEE"/>
<rect x="362.15" y="9.49268" width="1.17729" height="226.531" fill="#EEEEEE"/>
<rect x="471.637" y="9.49268" width="1.17729" height="226.531" fill="#EEEEEE"/>
<rect x="581.125" y="9.49268" width="1.17729" height="226.531" fill="#EEEEEE"/>
<rect x="690.612" y="9.49268" width="1.17729" height="226.531" fill="#EEEEEE"/>
<path d="M34.8643 181.809C34.8643 181.809 67.9394 147.062 88.6113 147.062C109.283 147.062 122.72 158.644 143.909 158.644C165.098 158.644 177.501 141.271 198.173 141.271C218.845 141.271 240.5 168.5 261.5 164.5C282.5 160.5 287.062 190.496 307.734 190.496C328.406 190.496 341.843 132.584 363.032 132.584C384.22 132.584 396.623 167.331 417.295 167.331C437.967 167.331 451.404 149.957 472.593 149.957C493.782 149.957 495.281 184.705 527.89 184.705C560.5 184.705 561.482 126.793 582.154 126.793C602.826 126.793 616.78 152.853 637.452 152.853C658.124 152.853 671.044 118.106 691.716 118.106C712.388 118.106 726.341 149.957 747.013 149.957C767.685 149.957 801.277 76.1196 801.277 76.1196" stroke="#4BDE97" stroke-width="2"/>
<path d="M34.8643 144.967C34.8643 144.967 67.9394 144.967 88.6113 144.967C109.283 144.967 122.72 100.549 143.909 100.549C165.098 100.549 177.501 167.176 198.173 167.176C218.845 167.176 232.281 122.758 253.47 122.758C274.659 122.758 287.062 178.281 307.734 178.281C328.406 178.281 341.843 133.863 363.032 133.863C384.22 133.863 396.623 200.49 417.295 200.49C437.967 200.49 451.404 67.2358 472.593 67.2358C493.782 67.2358 507.218 200.49 527.89 200.49C548.562 200.49 561.482 156.072 582.154 156.072C602.826 156.072 616.78 122.758 637.452 122.758C658.124 122.758 671.044 189.385 691.716 189.385C712.388 189.385 726.341 133.863 747.013 133.863C767.685 133.863 801.277 143.857 801.277 143.857" stroke="#5F2EEA" stroke-width="2"/>
<path d="M625.039 239.186V247.914H626.292V241.594H626.373L628.947 247.901H629.987L632.561 241.598H632.642V247.914H633.894V239.186H632.296L629.518 245.97H629.416L626.637 239.186H625.039ZM637.311 248.058C638.394 248.058 639.003 247.509 639.246 247.019H639.297V247.914H640.541V243.567C640.541 241.662 639.041 241.283 638.002 241.283C636.817 241.283 635.726 241.76 635.3 242.953L636.497 243.226C636.685 242.762 637.162 242.314 638.019 242.314C638.841 242.314 639.263 242.745 639.263 243.486V243.516C639.263 243.98 638.786 243.972 637.61 244.108C636.37 244.253 635.1 244.577 635.1 246.064C635.1 247.351 636.067 248.058 637.311 248.058ZM637.588 247.036C636.868 247.036 636.348 246.712 636.348 246.081C636.348 245.399 636.953 245.156 637.691 245.058C638.104 245.003 639.084 244.892 639.267 244.709V245.553C639.267 246.328 638.649 247.036 637.588 247.036ZM642.51 250.368C643.562 250.368 644.227 249.818 644.606 248.787L647.312 241.381L645.936 241.368L644.278 246.448H644.21L642.552 241.368H641.189L643.583 247.999L643.426 248.433C643.102 249.303 642.646 249.375 641.947 249.183L641.64 250.227C641.794 250.296 642.126 250.368 642.51 250.368Z" fill="#B9B9B9"/>
<path d="M740.131 239.186V245.374C740.126 246.379 739.658 246.916 738.822 246.916C738.051 246.916 737.514 246.456 737.51 245.732H736.202C736.202 247.206 737.31 248.033 738.788 248.033C740.391 248.033 741.439 247.053 741.443 245.374V239.186H740.131ZM747.104 245.199C747.108 246.311 746.281 246.84 745.565 246.84C744.777 246.84 744.232 246.269 744.232 245.378V241.368H742.957V245.531C742.957 247.155 743.848 247.999 745.105 247.999C746.089 247.999 746.759 247.479 747.061 246.78H747.129V247.914H748.382V241.368H747.104V245.199ZM751.068 244.027C751.068 242.983 751.707 242.387 752.594 242.387C753.459 242.387 753.983 242.953 753.983 243.904V247.914H755.257V243.75C755.257 242.131 754.367 241.283 753.028 241.283C752.044 241.283 751.401 241.739 751.098 242.433H751.017V241.368H749.794V247.914H751.068V244.027Z" fill="#B9B9B9"/>
<path d="M518.17 247.914L518.971 245.604H522.38L523.177 247.914H524.575L521.434 239.186H519.913L516.772 247.914H518.17ZM519.355 244.496L520.641 240.772H520.71L521.997 244.496H519.355ZM525.433 250.368H526.707V246.895H526.784C527.014 247.313 527.482 248.041 528.676 248.041C530.261 248.041 531.411 246.772 531.411 244.654C531.411 242.531 530.244 241.283 528.663 241.283C527.448 241.283 527.009 242.024 526.784 242.429H526.677V241.368H525.433V250.368ZM526.681 244.641C526.681 243.273 527.278 242.365 528.39 242.365C529.545 242.365 530.124 243.341 530.124 244.641C530.124 245.953 529.528 246.955 528.39 246.955C527.295 246.955 526.681 246.017 526.681 244.641ZM532.539 247.914H533.813V243.916C533.813 243.06 534.474 242.442 535.377 242.442C535.641 242.442 535.94 242.489 536.042 242.519V241.3C535.914 241.283 535.663 241.27 535.501 241.27C534.734 241.27 534.077 241.705 533.839 242.408H533.77V241.368H532.539V247.914Z" fill="#B9B9B9"/>
<path d="M408.226 239.186V247.914H409.479V241.594H409.56L412.134 247.901H413.173L415.747 241.598H415.828V247.914H417.081V239.186H415.483L412.705 245.97H412.602L409.824 239.186H408.226ZM420.498 248.058C421.58 248.058 422.19 247.509 422.433 247.019H422.484V247.914H423.728V243.567C423.728 241.662 422.228 241.283 421.188 241.283C420.004 241.283 418.913 241.76 418.487 242.953L419.684 243.226C419.872 242.762 420.349 242.314 421.205 242.314C422.028 242.314 422.45 242.745 422.45 243.486V243.516C422.45 243.98 421.972 243.972 420.796 244.108C419.556 244.253 418.286 244.577 418.286 246.064C418.286 247.351 419.254 248.058 420.498 248.058ZM420.775 247.036C420.055 247.036 419.535 246.712 419.535 246.081C419.535 245.399 420.14 245.156 420.877 245.058C421.291 245.003 422.271 244.892 422.454 244.709V245.553C422.454 246.328 421.836 247.036 420.775 247.036ZM425.125 247.914H426.399V243.916C426.399 243.06 427.06 242.442 427.963 242.442C428.228 242.442 428.526 242.489 428.628 242.519V241.3C428.5 241.283 428.249 241.27 428.087 241.27C427.32 241.27 426.664 241.705 426.425 242.408H426.357V241.368H425.125V247.914Z" fill="#B9B9B9"/>
<path d="M298.701 247.914H300.017V244.108H303.725V242.979H300.017V240.32H304.112V239.186H298.701V247.914ZM307.67 248.046C309.098 248.046 310.108 247.343 310.397 246.277L309.191 246.06C308.961 246.678 308.407 246.993 307.683 246.993C306.592 246.993 305.859 246.286 305.825 245.024H310.478V244.573C310.478 242.208 309.064 241.283 307.581 241.283C305.757 241.283 304.555 242.672 304.555 244.683C304.555 246.716 305.74 248.046 307.67 248.046ZM305.829 244.07C305.88 243.141 306.554 242.335 307.589 242.335C308.578 242.335 309.225 243.068 309.23 244.07H305.829ZM311.694 247.914H312.939V246.895H313.045C313.275 247.313 313.744 248.041 314.937 248.041C316.522 248.041 317.673 246.772 317.673 244.654C317.673 242.531 316.505 241.283 314.924 241.283C313.71 241.283 313.271 242.024 313.045 242.429H312.968V239.186H311.694V247.914ZM312.943 244.641C312.943 243.273 313.539 242.365 314.652 242.365C315.807 242.365 316.386 243.341 316.386 244.641C316.386 245.953 315.789 246.955 314.652 246.955C313.557 246.955 312.943 246.017 312.943 244.641Z" fill="#B9B9B9"/>
<path d="M192.845 239.186V245.374C192.841 246.379 192.372 246.916 191.537 246.916C190.766 246.916 190.229 246.456 190.225 245.732H188.916C188.916 247.206 190.024 248.033 191.503 248.033C193.105 248.033 194.154 247.053 194.158 245.374V239.186H192.845ZM197.577 248.058C198.659 248.058 199.269 247.509 199.512 247.019H199.563V247.914H200.807V243.567C200.807 241.662 199.307 241.283 198.267 241.283C197.083 241.283 195.992 241.76 195.566 242.953L196.763 243.226C196.95 242.762 197.428 242.314 198.284 242.314C199.107 242.314 199.529 242.745 199.529 243.486V243.516C199.529 243.98 199.051 243.972 197.875 244.108C196.635 244.253 195.365 244.577 195.365 246.064C195.365 247.351 196.333 248.058 197.577 248.058ZM197.854 247.036C197.134 247.036 196.614 246.712 196.614 246.081C196.614 245.399 197.219 245.156 197.956 245.058C198.369 245.003 199.35 244.892 199.533 244.709V245.553C199.533 246.328 198.915 247.036 197.854 247.036ZM203.478 244.027C203.478 242.983 204.117 242.387 205.004 242.387C205.869 242.387 206.393 242.953 206.393 243.904V247.914H207.667V243.75C207.667 242.131 206.777 241.283 205.438 241.283C204.454 241.283 203.811 241.739 203.508 242.433H203.427V241.368H202.204V247.914H203.478V244.027Z" fill="#B9B9B9"/>
<path d="M81.0306 247.914C83.6897 247.914 85.2281 246.264 85.2281 243.537C85.2281 240.823 83.6897 239.186 81.1201 239.186H78.2053V247.914H81.0306ZM79.5221 246.763V240.337H81.0391C82.9482 240.337 83.9326 241.479 83.9326 243.537C83.9326 245.604 82.9482 246.763 80.9582 246.763H79.5221ZM89.2842 248.046C90.7118 248.046 91.7217 247.343 92.0115 246.277L90.8055 246.06C90.5754 246.678 90.0215 246.993 89.297 246.993C88.2061 246.993 87.4732 246.286 87.4391 245.024H92.0925V244.573C92.0925 242.208 90.6777 241.283 89.1947 241.283C87.3709 241.283 86.1692 242.672 86.1692 244.683C86.1692 246.716 87.3538 248.046 89.2842 248.046ZM87.4433 244.07C87.4945 243.141 88.1678 242.335 89.2033 242.335C90.1919 242.335 90.8396 243.068 90.8439 244.07H87.4433ZM95.9633 248.046C97.5102 248.046 98.5116 247.117 98.6522 245.843H97.4121C97.2502 246.55 96.7005 246.968 95.9718 246.968C94.8937 246.968 94.1991 246.068 94.1991 244.641C94.1991 243.239 94.9065 242.357 95.9718 242.357C96.7815 242.357 97.2758 242.868 97.4121 243.482H98.6522C98.5158 242.161 97.4377 241.283 95.9505 241.283C94.1053 241.283 92.9121 242.672 92.9121 244.671C92.9121 246.644 94.0627 248.046 95.9633 248.046Z" fill="#B9B9B9"/>
</svg>
