<svg width="139" height="52" viewBox="0 0 139 52" fill="none" xmlns="http://www.w3.org/2000/svg">
<path fill-rule="evenodd" clip-rule="evenodd" d="M30.4523 4.23676C27.0957 0.88007 21.6534 0.880064 18.2967 4.23675L2.51752 20.0159C-0.839168 23.3726 -0.839175 28.8149 2.51751 32.1716L18.2967 47.9508C21.6534 51.3075 27.0957 51.3075 30.4523 47.9508L46.2315 32.1716C49.5882 28.8149 49.5882 23.3726 46.2315 20.016L30.4523 4.23676ZM24.3745 37.6975C30.7831 37.6975 35.9782 32.5023 35.9782 26.0938C35.9782 19.6852 30.7831 14.4901 24.3745 14.4901C17.966 14.4901 12.7708 19.6852 12.7708 26.0938C12.7708 32.5023 17.966 37.6975 24.3745 37.6975Z" fill="white"/>
<circle cx="24.4967" cy="26.216" r="7.7358" stroke="white" stroke-opacity="0.5" stroke-width="2.5786"/>
<circle cx="24.4967" cy="26.216" r="3.8679" fill="white" fill-opacity="0.8"/>
<path d="M58.6483 22H68.7869V19.3848H61.8203V15.8026H68.2375V13.1873H61.8203V9.61247H68.7576V6.99724H58.6483V22ZM75.201 6.99724H72.0803V22H75.201V6.99724ZM83.6883 22.2198C86.472 22.2198 88.3474 20.8645 88.7869 18.7768L85.9006 18.5863C85.5856 19.4434 84.7798 19.8902 83.7396 19.8902C82.1793 19.8902 81.1903 18.8573 81.1903 17.1798V17.1725H88.8528V16.3154C88.8528 12.4914 86.538 10.6014 83.5638 10.6014C80.2526 10.6014 78.1062 12.9529 78.1062 16.4252C78.1062 19.9928 80.2233 22.2198 83.6883 22.2198ZM81.1903 15.2385C81.2562 13.9565 82.2305 12.9309 83.6151 12.9309C84.9703 12.9309 85.908 13.8979 85.9153 15.2385H81.1903ZM96.8182 26.4539C100.034 26.4539 102.32 24.9888 102.32 22.1099V10.7479H99.221V12.6379H99.1038C98.6862 11.7222 97.7705 10.6014 95.8878 10.6014C93.4191 10.6014 91.3313 12.5207 91.3313 16.352C91.3313 20.0954 93.3605 21.8388 95.8952 21.8388C97.6899 21.8388 98.6935 20.9378 99.1038 20.0074H99.2356V22.0659C99.2356 23.6116 98.2467 24.2123 96.8914 24.2123C95.5142 24.2123 94.8183 23.6116 94.5619 22.9303L91.6756 23.3186C92.0492 25.0914 93.7854 26.4539 96.8182 26.4539ZM96.8841 19.4947C95.3531 19.4947 94.5179 18.2786 94.5179 16.3373C94.5179 14.4254 95.3384 13.0848 96.8841 13.0848C98.4005 13.0848 99.2503 14.3668 99.2503 16.3373C99.2503 18.3226 98.3858 19.4947 96.8841 19.4947ZM108.871 22.2124C110.534 22.2124 111.611 21.4872 112.16 20.4397H112.248V22H115.208V14.4107C115.208 11.7296 112.937 10.6014 110.432 10.6014C107.736 10.6014 105.963 11.8907 105.531 13.9419L108.417 14.1763C108.629 13.4291 109.296 12.8797 110.417 12.8797C111.479 12.8797 112.087 13.4144 112.087 14.3375V14.3814C112.087 15.1066 111.318 15.2019 109.362 15.3923C107.135 15.5975 105.135 16.3447 105.135 18.8573C105.135 21.0843 106.725 22.2124 108.871 22.2124ZM109.765 20.0587C108.805 20.0587 108.117 19.6119 108.117 18.7548C108.117 17.8757 108.842 17.4435 109.941 17.2897C110.622 17.1944 111.735 17.0333 112.109 16.7842V17.9783C112.109 19.1577 111.135 20.0587 109.765 20.0587ZM121.609 15.4949C121.616 14.0444 122.481 13.1947 123.741 13.1947C124.994 13.1947 125.748 14.0151 125.741 15.3923V22H128.861V14.8356C128.861 12.213 127.323 10.6014 124.979 10.6014C123.309 10.6014 122.1 11.4219 121.594 12.7332H121.463V10.7479H118.488V22H121.609V15.4949ZM138.166 10.7479H136.048V8.05212H132.928V10.7479H131.389V13.0921H132.928V18.9526C132.913 21.1576 134.415 22.2491 136.678 22.1538C137.484 22.1245 138.056 21.9634 138.371 21.8608L137.88 19.5386C137.726 19.5679 137.396 19.6412 137.103 19.6412C136.481 19.6412 136.048 19.4067 136.048 18.5423V13.0921H138.166V10.7479Z" fill="white"/>
<path d="M61.139 41.3477C63.8055 41.3477 65.3482 39.6939 65.3482 36.959C65.3482 34.237 63.8055 32.596 61.2287 32.596H58.3058V41.3477H61.139ZM59.6263 40.1939V33.7498H61.1476C63.062 33.7498 64.0491 34.8951 64.0491 36.959C64.0491 39.0316 63.062 40.1939 61.0664 40.1939H59.6263ZM69.6573 41.4929C70.7427 41.4929 71.3537 40.9417 71.5973 40.4503H71.6486V41.3477H72.8964V36.9889C72.8964 35.0788 71.3922 34.6985 70.3495 34.6985C69.1616 34.6985 68.0676 35.1771 67.6403 36.3736L68.8411 36.6471C69.0291 36.1813 69.5077 35.7326 70.3666 35.7326C71.1914 35.7326 71.6144 36.1642 71.6144 36.9078V36.9377C71.6144 37.4034 71.1358 37.3949 69.9564 37.5316C68.7129 37.6769 67.4394 38.0017 67.4394 39.4931C67.4394 40.7836 68.4095 41.4929 69.6573 41.4929ZM69.935 40.4674C69.2128 40.4674 68.6915 40.1426 68.6915 39.5102C68.6915 38.8264 69.2983 38.5829 70.0376 38.4846C70.4521 38.429 71.4349 38.3179 71.6187 38.1342V38.9803C71.6187 39.758 70.9991 40.4674 69.935 40.4674ZM80.3762 36.3864C80.1113 35.3651 79.3122 34.6985 77.8935 34.6985C76.4107 34.6985 75.3595 35.4805 75.3595 36.6428C75.3595 37.5744 75.9235 38.194 77.1542 38.4675L78.2653 38.7111C78.8977 38.8521 79.1926 39.1341 79.1926 39.5443C79.1926 40.0529 78.6499 40.4503 77.8123 40.4503C77.0474 40.4503 76.556 40.1212 76.4021 39.476L75.1672 39.664C75.3808 40.8263 76.3466 41.4801 77.8208 41.4801C79.4062 41.4801 80.5044 40.6383 80.5044 39.4503C80.5044 38.523 79.9147 37.9504 78.7097 37.6727L77.667 37.4334C76.9448 37.2624 76.6329 37.0189 76.6372 36.5744C76.6329 36.0702 77.1799 35.7112 77.9063 35.7112C78.7011 35.7112 79.0686 36.1514 79.2182 36.5915L80.3762 36.3864ZM84.0465 37.4505C84.0465 36.4035 84.7089 35.8053 85.6191 35.8053C86.4994 35.8053 87.025 36.3651 87.025 37.3265V41.3477H88.3027V37.1727C88.3027 35.536 87.4053 34.6985 86.0549 34.6985C85.0336 34.6985 84.4183 35.1429 84.1106 35.8523H84.0294V32.596H82.7688V41.3477H84.0465V37.4505ZM90.9698 41.3477H92.2176V40.3264H92.3244C92.5552 40.7451 93.0252 41.4759 94.2217 41.4759C95.8114 41.4759 96.9651 40.2024 96.9651 38.0786C96.9651 35.9505 95.7943 34.6985 94.2089 34.6985C92.991 34.6985 92.5509 35.442 92.3244 35.848H92.2475V32.596H90.9698V41.3477ZM92.2218 38.0658C92.2218 36.6941 92.8201 35.7839 93.9354 35.7839C95.0935 35.7839 95.6746 36.7625 95.6746 38.0658C95.6746 39.382 95.0764 40.3862 93.9354 40.3862C92.8372 40.3862 92.2218 39.4461 92.2218 38.0658ZM102.024 41.4801C103.875 41.4801 105.084 40.1255 105.084 38.0957C105.084 36.0531 103.875 34.6985 102.024 34.6985C100.174 34.6985 98.9646 36.0531 98.9646 38.0957C98.9646 40.1255 100.174 41.4801 102.024 41.4801ZM102.028 40.4075C100.819 40.4075 100.255 39.352 100.255 38.0914C100.255 36.8351 100.819 35.7668 102.028 35.7668C103.229 35.7668 103.793 36.8351 103.793 38.0914C103.793 39.352 103.229 40.4075 102.028 40.4075ZM109.28 41.4929C110.365 41.4929 110.976 40.9417 111.22 40.4503H111.271V41.3477H112.519V36.9889C112.519 35.0788 111.015 34.6985 109.972 34.6985C108.784 34.6985 107.69 35.1771 107.263 36.3736L108.464 36.6471C108.652 36.1813 109.13 35.7326 109.989 35.7326C110.814 35.7326 111.237 36.1642 111.237 36.9078V36.9377C111.237 37.4034 110.758 37.3949 109.579 37.5316C108.335 37.6769 107.062 38.0017 107.062 39.4931C107.062 40.7836 108.032 41.4929 109.28 41.4929ZM109.557 40.4674C108.835 40.4674 108.314 40.1426 108.314 39.5102C108.314 38.8264 108.921 38.5829 109.66 38.4846C110.075 38.429 111.057 38.3179 111.241 38.1342V38.9803C111.241 39.758 110.622 40.4674 109.557 40.4674ZM115.08 41.3477H116.358V37.3394C116.358 36.4804 117.02 35.8608 117.926 35.8608C118.191 35.8608 118.49 35.9078 118.593 35.9377V34.7156C118.465 34.6985 118.212 34.6857 118.05 34.6857C117.281 34.6857 116.623 35.1215 116.384 35.8266H116.315V34.7839H115.08V41.3477ZM122.78 41.4759C123.977 41.4759 124.447 40.7451 124.677 40.3264H124.784V41.3477H126.032V32.596H124.754V35.848H124.677C124.447 35.442 124.011 34.6985 122.789 34.6985C121.203 34.6985 120.037 35.9505 120.037 38.0786C120.037 40.2024 121.186 41.4759 122.78 41.4759ZM123.062 40.3862C121.921 40.3862 121.327 39.382 121.327 38.0658C121.327 36.7625 121.908 35.7839 123.062 35.7839C124.177 35.7839 124.776 36.6941 124.776 38.0658C124.776 39.4461 124.165 40.3862 123.062 40.3862Z" fill="white"/>
</svg>
