<svg width="48" height="48" viewBox="0 0 48 48" fill="none" xmlns="http://www.w3.org/2000/svg">
<mask id="mask0_415_27" style="mask-type:alpha" maskUnits="userSpaceOnUse" x="0" y="0" width="48" height="48">
<rect width="48" height="48" rx="24" fill="#C4C4C4"/>
</mask>
<g mask="url(#mask0_415_27)">
<mask id="mask1_415_27" style="mask-type:alpha" maskUnits="userSpaceOnUse" x="0" y="0" width="48" height="48">
<rect width="48" height="48" fill="#C4C4C4"/>
</mask>
<g mask="url(#mask1_415_27)">
<rect width="48" height="48" fill="#F5EFFF"/>
<path d="M21.1648 0.173459C21.1648 0.173459 15.1086 0.545892 12.6358 6.06864C10.1059 11.7189 11.8003 14.9064 8.52897 18.1442C5.25759 21.382 4.23759 25.8848 7.83777 28.5925C12.1224 31.8169 17.266 28.0825 21.3527 29.7131C30.989 33.5616 42.615 28.8575 39.9945 21.7712C38.743 18.3858 36.4581 19.4527 35.2905 10.1788C34.5758 4.47489 30.4488 -1.05792 21.1648 0.173459Z" fill="#19274B"/>
<path d="M49 47.6201H-1C-1 47.6201 -0.328947 44.4393 0.6273 41.2451C1.58355 38.0509 3.55979 36.7122 6.11985 36.0579C6.84123 35.8733 8.1632 35.4875 9.68984 35.0345C10.5521 34.7762 11.4849 34.4943 12.4076 34.2159C15.6286 33.2361 18.7725 32.2597 18.7725 32.2597L23.9732 31.8437L24.0034 31.8403L24.0336 31.8437L28.7242 32.2195C28.7242 32.2195 31.546 33.065 34.6261 33.9776C37.5183 34.8299 40.6421 35.7425 41.8801 36.0612C44.4402 36.7189 46.4165 38.0543 47.3727 41.2485C48.3289 44.4427 49 47.6201 49 47.6201Z" fill="#FFAC32"/>
<path d="M10.5958 43.1376C10.4884 44.6508 10.2468 46.1339 9.46839 47.6202H-0.996643C-0.996643 47.6202 -0.32559 44.4394 0.630657 41.2452C1.5869 38.051 3.56315 36.7123 6.12321 36.058C6.84458 35.8735 8.16656 35.4876 9.6932 35.0347C10.4179 36.8465 10.7937 40.3293 10.5958 43.1376Z" fill="#FF8881"/>
<path d="M37.4076 43.1376C37.515 44.6508 37.7566 46.1339 38.535 47.6202H49C49 47.6202 48.329 44.4394 47.3727 41.2452C46.4165 38.051 44.4402 36.7123 41.8802 36.058C41.1588 35.8735 39.8368 35.4876 38.3102 35.0347C37.5854 36.8465 37.2096 40.3293 37.4076 43.1376Z" fill="#FF8881"/>
<path d="M34.6261 33.9742C33.9617 37.5442 31.6936 44.3822 24.057 44.7345C15.5917 45.1237 13.0518 37.1416 12.4076 34.2124C15.6286 33.2327 18.7725 32.2563 18.7725 32.2563L23.9732 31.8403L24.0033 31.8369L24.0335 31.8403L28.7242 32.2161C28.7242 32.2161 31.5426 33.0649 34.6261 33.9742Z" fill="#FF8881"/>
<path d="M24.0302 38.9233C20.6448 38.9233 18.6988 37.2155 17.6586 35.7828C16.5413 34.2428 16.2226 32.7161 16.2125 32.6524C16.1756 32.4645 16.2964 32.2833 16.4809 32.2464C16.6688 32.2095 16.85 32.3303 16.8869 32.5148C16.8936 32.545 17.199 33.9844 18.2324 35.4003C19.6047 37.2826 21.5574 38.2355 24.0302 38.2355C26.5031 38.2355 28.3485 37.2826 29.5094 35.4003C30.3851 33.9878 30.5294 32.5651 30.5294 32.5517C30.5461 32.3638 30.7173 32.2229 30.9052 32.243C31.0931 32.2598 31.234 32.4276 31.2138 32.6188C31.2071 32.6826 31.0528 34.2159 30.0932 35.766C29.2041 37.2021 27.4291 38.9233 24.0302 38.9233Z" fill="#F5EFFF"/>
<path d="M24.0305 31.8369V31.8403H24.0034L24.0305 31.8369Z" fill="#5D46C2"/>
<path d="M24.0037 31.8403H23.9732V31.8369L24.0037 31.8403Z" fill="#5D46C2"/>
<path d="M28.6404 33.491C28.6404 33.491 27.3452 35.9135 23.7283 35.9135C20.2321 35.9135 18.7625 33.3702 18.7625 33.3702L18.9772 31.6288L19.0142 31.3369L19.3497 28.5923L27.9995 28.8339L28.1438 29.8773L28.1908 30.2196L28.6404 33.491Z" fill="#FF8881"/>
<path d="M28.1372 29.8773C26.1777 31.5382 23.007 32.169 18.974 31.6288L19.0109 31.3369L19.3464 28.5923L27.9963 28.8339L28.1372 29.8773Z" fill="#19274B"/>
<path d="M16.0984 21.4523C14.1624 24.1532 9.99856 22.328 10.2804 18.7446C10.5388 15.4933 14.1691 16.01 14.1691 16.01L16.0984 21.4523Z" fill="#F55B5D"/>
<path d="M14.9844 21.8313C16.3735 22.3983 17.3533 23.7606 17.3533 25.3509C17.3533 27.4446 15.6488 29.1491 13.5551 29.1491C11.4614 29.1491 9.75696 27.4446 9.75696 25.3509C9.75696 23.5827 10.9716 22.093 12.6123 21.6702C12.8572 21.6065 13.1156 21.5662 13.3773 21.5562C13.4175 21.6803 13.4477 21.8078 13.4578 21.942C13.3001 21.9454 13.1424 21.9621 12.9881 21.989C11.3742 22.2574 10.1395 23.6633 10.1395 25.3509C10.1395 27.2332 11.6695 28.7632 13.5518 28.7632C15.4341 28.7632 16.964 27.2332 16.964 25.3509C16.964 24.0021 16.1756 22.8345 15.0381 22.2809L14.9844 21.8313Z" fill="#F5EFFF"/>
<path d="M14.3168 21.5228C14.1993 21.5228 14.0953 21.4422 14.0651 21.3248C13.686 19.7848 12.0889 18.3487 12.0755 18.3353C11.9681 18.2413 11.958 18.0769 12.0553 17.9696C12.1493 17.8622 12.3137 17.8521 12.421 17.9494C12.4915 18.0132 14.1557 19.5063 14.5718 21.2007C14.6053 21.3382 14.5214 21.4792 14.3839 21.5127C14.357 21.5194 14.3369 21.5228 14.3168 21.5228Z" fill="#D1373F"/>
<path d="M13.6524 20.0598C13.6256 20.0598 13.5987 20.0565 13.5719 20.0464C12.8639 19.8082 12.1895 19.9524 12.1828 19.9558C12.0453 19.986 11.9077 19.8988 11.8741 19.7612C11.8439 19.6236 11.9312 19.4861 12.0687 19.4525C12.1023 19.4458 12.8874 19.2747 13.7363 19.5599C13.8705 19.6035 13.9443 19.7511 13.9007 19.8853C13.8604 19.9927 13.7598 20.0598 13.6524 20.0598Z" fill="#D1373F"/>
<path d="M30.422 21.4523C32.358 24.1532 36.5218 22.328 36.24 18.7446C35.9817 15.4933 32.3513 16.01 32.3513 16.01L30.422 21.4523Z" fill="#F55B5D"/>
<path d="M32.0057 21.8313C30.6166 22.3983 29.6368 23.7606 29.6368 25.3509C29.6368 27.4446 31.3413 29.1491 33.435 29.1491C35.5287 29.1491 37.2331 27.4446 37.2331 25.3509C37.2331 23.5827 36.0185 22.093 34.3778 21.6702C34.1329 21.6065 33.8745 21.5662 33.6128 21.5562C33.5726 21.6803 33.5424 21.8078 33.5323 21.942C33.69 21.9454 33.8477 21.9621 34.002 21.989C35.6159 22.2574 36.8506 23.6633 36.8506 25.3509C36.8506 27.2332 35.3206 28.7632 33.4383 28.7632C31.5561 28.7632 30.0261 27.2332 30.0261 25.3509C30.0261 24.0021 30.8145 22.8345 31.952 22.2809L32.0057 21.8313Z" fill="#F5EFFF"/>
<path d="M32.2037 21.5228C32.1835 21.5228 32.1634 21.5194 32.1433 21.5161C32.0057 21.4825 31.9185 21.3416 31.9554 21.204C32.3714 19.5096 34.0356 18.0132 34.1061 17.9528C34.2134 17.8588 34.3745 17.8689 34.4718 17.9729C34.5657 18.0803 34.5557 18.2413 34.4517 18.3386C34.4349 18.3521 32.8378 19.7881 32.462 21.3282C32.4251 21.4423 32.3177 21.5228 32.2037 21.5228Z" fill="#D1373F"/>
<path d="M32.868 20.0597C32.7606 20.0597 32.6599 19.9926 32.623 19.8819C32.5794 19.7477 32.6499 19.6001 32.7874 19.5565C33.6363 19.2713 34.4214 19.4424 34.455 19.4491C34.5926 19.4793 34.6831 19.6169 34.6496 19.7578C34.6194 19.8953 34.4818 19.9826 34.3409 19.9524C34.3308 19.949 33.6564 19.8081 32.9518 20.043C32.925 20.0564 32.8948 20.0597 32.868 20.0597Z" fill="#D1373F"/>
<path d="M13.4008 12.0612C13.4008 12.0612 12.4546 17.9195 14.904 23.6502C17.1218 28.8442 20.0744 30.4614 23.2183 30.5117C26.7916 30.5688 34.2738 28.5019 33.0894 11.5478C32.2875 0.093009 14.347 0.495638 13.4008 12.0612Z" fill="#FF8881"/>
<path d="M32.8679 12.6583C28.0363 12.7825 24.6609 11.4907 22.4901 10.1687C23.3759 11.3867 24.879 12.1584 24.879 12.1584C21.7653 12.9536 19.7488 9.99427 18.8865 8.32335C16.5848 11.9135 13.2833 13.6247 13.2833 13.6247C11.2835 1.43166 19.8629 0.418377 26.8284 1.07936C33.3376 1.70008 36.5889 12.561 32.8679 12.6583Z" fill="#19274B"/>
<path d="M16.0279 11.2425C16.0279 11.2425 14.3167 14.6347 14.8804 18.1443C15.4239 21.5297 15.179 24.781 13.5081 25.3547C13.5081 25.3547 14.6421 23.7308 13.6087 20.9359C12.5753 18.1409 12.3002 14.4367 12.988 12.7256C13.6758 11.0144 16.0279 11.2425 16.0279 11.2425Z" fill="#19274B"/>
<path d="M30.744 11.2425C30.744 11.2425 32.4552 14.6347 31.8915 18.1443C31.348 21.5297 31.5929 24.781 33.2638 25.3547C33.2638 25.3547 32.1297 23.7308 33.1632 20.9359C34.1966 18.1409 34.4717 14.4367 33.7839 12.7256C33.0961 11.0144 30.744 11.2425 30.744 11.2425Z" fill="#19274B"/>
<path d="M16.7359 15.0304C16.7359 15.0304 18.1048 13.1246 20.4636 12.8797C20.8461 12.8394 21.185 13.1347 21.2084 13.5172V13.5239C21.2319 13.9131 20.9233 14.2419 20.5341 14.2486C19.6483 14.2587 18.0948 14.3862 16.7359 15.0304Z" fill="#19274B"/>
<path d="M29.9691 15.0304C29.9691 15.0304 28.6001 13.1246 26.2414 12.8797C25.8589 12.8394 25.52 13.1347 25.4965 13.5172V13.5239C25.473 13.9131 25.7817 14.2419 26.1709 14.2486C27.0567 14.2587 28.6135 14.3862 29.9691 15.0304Z" fill="#19274B"/>
<path d="M23.6612 27.4717C22.9264 27.4717 22.3425 27.2133 22.3056 27.1966C22.1983 27.1462 22.1479 27.0187 22.1983 26.9114C22.2486 26.804 22.3727 26.7537 22.4835 26.804C22.5036 26.8107 23.8289 27.3912 24.8892 26.6933C24.9898 26.6295 25.1207 26.6564 25.1878 26.7537C25.2515 26.8543 25.2247 26.9852 25.1274 27.0523C24.6375 27.371 24.1208 27.4717 23.6612 27.4717Z" fill="#F55B5D"/>
<path d="M24.4228 21.9895C24.4161 21.9895 24.4127 21.9895 24.406 21.9895L22.8324 21.862C22.715 21.8519 22.6244 21.7479 22.6344 21.6305C22.6445 21.5131 22.7485 21.4225 22.8659 21.4325L24.1812 21.5399L23.7719 17.5404C23.7584 17.423 23.8457 17.3156 23.9631 17.3056C24.0806 17.2921 24.1879 17.3794 24.198 17.4968L24.6342 21.7513C24.6409 21.815 24.6174 21.8788 24.5738 21.9224C24.5369 21.966 24.4798 21.9895 24.4228 21.9895Z" fill="#F55B5D"/>
<path d="M20.2858 23.7039C22.2217 24.0058 24.1913 24.1367 26.8285 23.6133C26.8285 23.6133 26.6004 26.4317 23.4699 26.4418C20.8058 26.4518 20.2858 23.7039 20.2858 23.7039Z" fill="#F5EFFF"/>
<path d="M20.1314 17.5167C20.1314 18.2616 19.7925 18.8689 19.3731 18.8689C18.9537 18.8689 18.6148 18.2649 18.6148 17.5167C18.6148 16.7719 18.9537 16.1646 19.3731 16.1646C19.7925 16.1646 20.1314 16.7719 20.1314 17.5167Z" fill="#19274B"/>
<path d="M28.1874 17.5167C28.1874 18.2616 27.8485 18.8689 27.4291 18.8689C27.0097 18.8689 26.6708 18.2649 26.6708 17.5167C26.6708 16.7719 27.0097 16.1646 27.4291 16.1646C27.8452 16.1646 28.1874 16.7719 28.1874 17.5167Z" fill="#19274B"/>
<path d="M17.3634 20.2882C17.3634 20.4157 17.2593 20.5197 17.1318 20.5197C17.0043 20.5197 16.9003 20.4157 16.9003 20.2882C16.9003 20.1607 17.0043 20.0567 17.1318 20.0567C17.2593 20.0534 17.3634 20.1574 17.3634 20.2882Z" fill="#F55B5D"/>
<path d="M18.4975 20.8487C18.4975 20.9762 18.3935 21.0802 18.266 21.0802C18.1385 21.0802 18.0345 20.9762 18.0345 20.8487C18.0345 20.7212 18.1385 20.6172 18.266 20.6172C18.3935 20.6172 18.4975 20.7212 18.4975 20.8487Z" fill="#F55B5D"/>
<path d="M17.3634 21.6539C17.3634 21.7814 17.2594 21.8854 17.1319 21.8854C17.0044 21.8854 16.9004 21.7814 16.9004 21.6539C16.9004 21.5264 17.0044 21.4224 17.1319 21.4224C17.2594 21.4224 17.3634 21.5264 17.3634 21.6539Z" fill="#F55B5D"/>
<path d="M18.9136 22.1203C19.0414 22.1203 19.1451 22.0166 19.1451 21.8887C19.1451 21.7609 19.0414 21.6572 18.9136 21.6572C18.7857 21.6572 18.6821 21.7609 18.6821 21.8887C18.6821 22.0166 18.7857 22.1203 18.9136 22.1203Z" fill="#F55B5D"/>
<path d="M20.1013 21.8854C20.2291 21.8854 20.3328 21.7817 20.3328 21.6539C20.3328 21.526 20.2291 21.4224 20.1013 21.4224C19.9734 21.4224 19.8698 21.526 19.8698 21.6539C19.8698 21.7817 19.9734 21.8854 20.1013 21.8854Z" fill="#F55B5D"/>
<path d="M19.7926 20.5196C19.7926 20.6471 19.6886 20.7511 19.5611 20.7511C19.4336 20.7511 19.3296 20.6471 19.3296 20.5196C19.3296 20.3921 19.4336 20.2881 19.5611 20.2881C19.6886 20.2881 19.7926 20.3921 19.7926 20.5196Z" fill="#F55B5D"/>
<path d="M30.1267 20.5197C30.2546 20.5197 30.3582 20.416 30.3582 20.2882C30.3582 20.1603 30.2546 20.0566 30.1267 20.0566C29.9989 20.0566 29.8952 20.1603 29.8952 20.2882C29.8952 20.416 29.9989 20.5197 30.1267 20.5197Z" fill="#F55B5D"/>
<path d="M28.9927 21.0802C29.1205 21.0802 29.2242 20.9766 29.2242 20.8487C29.2242 20.7208 29.1205 20.6172 28.9927 20.6172C28.8648 20.6172 28.7612 20.7208 28.7612 20.8487C28.7612 20.9766 28.8648 21.0802 28.9927 21.0802Z" fill="#F55B5D"/>
<path d="M30.1267 21.8854C30.2546 21.8854 30.3582 21.7817 30.3582 21.6539C30.3582 21.526 30.2546 21.4224 30.1267 21.4224C29.9989 21.4224 29.8952 21.526 29.8952 21.6539C29.8952 21.7817 29.9989 21.8854 30.1267 21.8854Z" fill="#F55B5D"/>
<path d="M28.3417 22.1203C28.4696 22.1203 28.5733 22.0166 28.5733 21.8887C28.5733 21.7609 28.4696 21.6572 28.3417 21.6572C28.2139 21.6572 28.1102 21.7609 28.1102 21.8887C28.1102 22.0166 28.2139 22.1203 28.3417 22.1203Z" fill="#F55B5D"/>
<path d="M26.9225 21.6539C26.9225 21.7814 27.0265 21.8854 27.154 21.8854C27.2815 21.8854 27.3855 21.7814 27.3855 21.6539C27.3855 21.5264 27.2815 21.4224 27.154 21.4224C27.0265 21.4224 26.9225 21.5264 26.9225 21.6539Z" fill="#F55B5D"/>
<path d="M27.6942 20.7511C27.822 20.7511 27.9257 20.6475 27.9257 20.5196C27.9257 20.3917 27.822 20.2881 27.6942 20.2881C27.5663 20.2881 27.4626 20.3917 27.4626 20.5196C27.4626 20.6475 27.5663 20.7511 27.6942 20.7511Z" fill="#F55B5D"/>
</g>
</g>
</svg>
